<svg width="690" height="197" viewBox="0 0 690 197" fill="none" xmlns="http://www.w3.org/2000/svg">
<path d="M0.658966 196.766L23.6256 189.488C46.5923 182.483 92.5256 167.52 138.459 153.237C184.392 138.955 230.326 123.992 276.259 131.473C322.192 138.955 368.126 167.52 414.059 164.119C459.992 160.719 505.926 123.992 551.859 106.104C597.792 87.9446 643.726 87.9446 666.692 87.9446H689.659V0.887573H666.692C643.726 0.887573 597.792 0.887573 551.859 0.887573C505.926 0.887573 459.992 0.887573 414.059 0.887573C368.126 0.887573 322.192 0.887573 276.259 0.887573C230.326 0.887573 184.392 0.887573 138.459 0.887573C92.5256 0.887573 46.5923 0.887573 23.6256 0.887573H0.658966V196.766Z" fill="url(#paint0_radial)"/>
<defs>
<radialGradient id="paint0_radial" cx="0" cy="0" r="1" gradientUnits="userSpaceOnUse" gradientTransform="translate(166 84) rotate(-1.2137) scale(472.106 1588.76)">
<stop stop-color="#03B1FC"/>
<stop offset="1" stop-color="#FDD80C" stop-opacity="0.8"/>
</radialGradient>
</defs>
</svg>
