<svg width="770" height="219" viewBox="0 0 770 219" fill="none" xmlns="http://www.w3.org/2000/svg">
<path d="M0.266968 219L25.8983 210.864C51.5296 203.031 102.792 186.302 154.055 170.333C205.318 154.365 256.58 137.635 307.843 146C359.105 154.365 410.368 186.302 461.631 182.5C512.893 178.698 564.156 137.635 615.419 117.636C666.681 97.3333 717.944 97.3333 743.575 97.3333H769.206V0H743.575C717.944 0 666.681 0 615.419 0C564.156 0 512.893 0 461.631 0C410.368 0 359.105 0 307.843 0C256.58 0 205.318 0 154.055 0C102.792 0 51.5296 0 25.8983 0H0.266968V219Z" fill="url(#paint0_linear)"/>
<defs>
<linearGradient id="paint0_linear" x1="384.737" y1="4.14043e-06" x2="472.867" y2="226.694" gradientUnits="userSpaceOnUse">
<stop stop-color="#03B1FC"/>
<stop offset="0.918985" stop-color="#FF007C" stop-opacity="0.6"/>
</linearGradient>
</defs>
</svg>
