<svg width="770" height="219" viewBox="0 0 770 219" fill="none" xmlns="http://www.w3.org/2000/svg">
<path d="M0.839798 219L26.4711 210.864C52.1024 203.031 103.365 186.302 154.628 170.333C205.89 154.365 257.153 137.635 308.416 146C359.678 154.365 410.941 186.302 462.204 182.5C513.466 178.698 564.729 137.635 615.991 117.636C667.254 97.3333 718.517 97.3333 744.148 97.3333H769.779V0H744.148C718.517 0 667.254 0 615.991 0C564.729 0 513.466 0 462.204 0C410.941 0 359.678 0 308.416 0C257.153 0 205.89 0 154.628 0C103.365 0 52.1024 0 26.4711 0H0.839798V219Z" fill="url(#paint0_linear)"/>
<defs>
<linearGradient id="paint0_linear" x1="521" y1="1.98268e-05" x2="178.69" y2="121.285" gradientUnits="userSpaceOnUse">
<stop stop-color="#FDD80C"/>
<stop offset="0.625359" stop-color="#FF007C" stop-opacity="0.6"/>
</linearGradient>
</defs>
</svg>
