<svg width="771" height="221" viewBox="0 0 771 221" fill="none" xmlns="http://www.w3.org/2000/svg">
<path d="M0.144592 220.321L25.8244 212.169C51.5041 204.322 102.864 187.562 154.223 171.563C205.583 155.564 256.942 138.803 308.302 147.183C359.661 155.564 411.021 187.562 462.38 183.752C513.74 179.943 565.099 138.803 616.459 118.766C667.818 98.4247 719.178 98.4247 744.858 98.4247H770.538V0.90741H744.858C719.178 0.90741 667.818 0.90741 616.459 0.90741C565.099 0.90741 513.74 0.90741 462.38 0.90741C411.021 0.90741 359.661 0.90741 308.302 0.90741C256.942 0.90741 205.583 0.90741 154.223 0.90741C102.864 0.90741 51.5041 0.90741 25.8244 0.90741H0.144592V220.321Z" fill="url(#paint0_linear)"/>
<defs>
<linearGradient id="paint0_linear" x1="385.341" y1="0.90741" x2="363.843" y2="243.44" gradientUnits="userSpaceOnUse">
<stop stop-color="#03B1FC"/>
<stop offset="0.934515" stop-color="#FF007C" stop-opacity="0.6"/>
</linearGradient>
</defs>
</svg>
