<svg width="50" height="36" viewBox="0 0 50 36" fill="none" xmlns="http://www.w3.org/2000/svg">
<path fill-rule="evenodd" clip-rule="evenodd" d="M6.25 9.70215C6.25 9.12715 6.71875 8.66048 7.29167 8.66048H14.5833V17.023C11.5354 17.1251 8.72292 17.5376 6.25 19.0521V9.70215ZM16.6667 8.66048H27.0833V16.9938H16.6667V8.66048ZM29.1667 8.66048H39.5833V16.9938H29.1667V8.66048ZM4.16667 9.70215V23.9292C7.23959 19.4709 11.2188 19.0771 16.6667 19.0771H41.6667V6.57715H7.29167C5.56667 6.57715 4.16667 7.97506 4.16667 9.70215ZM2.08334 8.66048C2.08334 6.36256 3.95208 4.49381 6.25 4.49381H16.6667V2.41048H35.4167V4.49381H45.8333C46.3813 4.49381 46.9188 4.71673 47.3063 5.10423C47.6938 5.49173 47.9167 6.02923 47.9167 6.57715V27.7876L43.6625 28.6376C43.2417 25.598 40.6562 23.2438 37.5 23.2438C34.05 23.2438 31.25 26.0459 31.25 29.4938H20.8333C20.8333 26.0459 18.0313 23.2438 14.5833 23.2438C11.1354 23.2438 8.33334 26.0459 8.33334 29.4938H2.08334V8.66048ZM10.4167 29.4938C10.4167 27.1959 12.2854 25.3271 14.5833 25.3271C16.8813 25.3271 18.75 27.1959 18.75 29.4938C18.75 31.7917 16.8813 33.6605 14.5833 33.6605C12.2854 33.6605 10.4167 31.7917 10.4167 29.4938ZM33.3333 29.4938C33.3333 27.1959 35.2021 25.3271 37.5 25.3271C39.7979 25.3271 41.6667 27.1959 41.6667 29.4938C41.6667 31.7917 39.7979 33.6605 37.5 33.6605C35.2021 33.6605 33.3333 31.7917 33.3333 29.4938ZM0 8.66048V29.4938C0 30.6459 0.931252 31.5771 2.08334 31.5771H8.71667C9.57917 33.998 11.8688 35.7438 14.5833 35.7438C17.2979 35.7438 19.5875 33.998 20.45 31.5771H31.6333C32.4958 33.998 34.7854 35.7438 37.5 35.7438C40.5104 35.7438 43.0271 33.6084 43.6188 30.7709L48.325 29.8292C49.3 29.6334 50 28.7792 50 27.7876V6.57715C50 5.47298 49.5604 4.41256 48.7792 3.63131C47.9979 2.85006 46.9375 2.41048 45.8333 2.41048H37.5C37.5 1.26048 36.5667 0.327148 35.4167 0.327148H16.6667C15.5146 0.327148 14.5833 1.26048 14.5833 2.41048H6.25C2.79792 2.41048 0 5.2084 0 8.66048ZM16.6667 29.4938C16.6667 30.6438 15.7333 31.5771 14.5833 31.5771C13.4333 31.5771 12.5 30.6438 12.5 29.4938C12.5 28.3438 13.4333 27.4105 14.5833 27.4105C15.7333 27.4105 16.6667 28.3438 16.6667 29.4938ZM37.5 27.4105C36.35 27.4105 35.4167 28.3438 35.4167 29.4938C35.4167 30.6438 36.35 31.5771 37.5 31.5771C38.65 31.5771 39.5833 30.6438 39.5833 29.4938C39.5833 28.3438 38.65 27.4105 37.5 27.4105Z" fill="#FE7B4D"/>
</svg>
