<svg width="49" height="36" viewBox="0 0 49 36" fill="none" xmlns="http://www.w3.org/2000/svg">
<path fill-rule="evenodd" clip-rule="evenodd" d="M42.75 9.7085C42.75 9.1335 42.2812 8.66683 41.7083 8.66683H34.4167V17.0293C37.4646 17.1314 40.2771 17.5439 42.75 19.0585V9.7085ZM32.3333 8.66683H21.9167V17.0002H32.3333V8.66683ZM19.8333 8.66683H9.41667V17.0002H19.8333V8.66683ZM44.8333 9.7085V23.9356C41.7604 19.4772 37.7812 19.0835 32.3333 19.0835H7.33333V6.5835H41.7083C43.4333 6.5835 44.8333 7.98141 44.8333 9.7085ZM46.9167 8.66683C46.9167 6.36891 45.0479 4.50016 42.75 4.50016H32.3333V2.41683H13.5833V4.50016H3.16667C2.61875 4.50016 2.08125 4.72308 1.69375 5.11058C1.30625 5.49808 1.08333 6.03558 1.08333 6.5835V27.7939L5.3375 28.6439C5.75833 25.6043 8.34375 23.2502 11.5 23.2502C14.95 23.2502 17.75 26.0522 17.75 29.5002H28.1667C28.1667 26.0522 30.9687 23.2502 34.4167 23.2502C37.8646 23.2502 40.6667 26.0522 40.6667 29.5002H46.9167V8.66683ZM38.5833 29.5002C38.5833 27.2022 36.7146 25.3335 34.4167 25.3335C32.1187 25.3335 30.25 27.2022 30.25 29.5002C30.25 31.7981 32.1187 33.6668 34.4167 33.6668C36.7146 33.6668 38.5833 31.7981 38.5833 29.5002ZM15.6667 29.5002C15.6667 27.2022 13.7979 25.3335 11.5 25.3335C9.20208 25.3335 7.33333 27.2022 7.33333 29.5002C7.33333 31.7981 9.20208 33.6668 11.5 33.6668C13.7979 33.6668 15.6667 31.7981 15.6667 29.5002ZM49 8.66683V29.5002C49 30.6522 48.0687 31.5835 46.9167 31.5835H40.2833C39.4208 34.0043 37.1312 35.7502 34.4167 35.7502C31.7021 35.7502 29.4125 34.0043 28.55 31.5835H17.3667C16.5042 34.0043 14.2146 35.7502 11.5 35.7502C8.48958 35.7502 5.97292 33.6147 5.38125 30.7772L0.675 29.8356C-0.3 29.6397 -1 28.7856 -1 27.7939V6.5835C-1 5.47933 -0.560417 4.41891 0.220833 3.63766C1.00208 2.85641 2.0625 2.41683 3.16667 2.41683H11.5C11.5 1.26683 12.4333 0.333496 13.5833 0.333496H32.3333C33.4854 0.333496 34.4167 1.26683 34.4167 2.41683H42.75C46.2021 2.41683 49 5.21475 49 8.66683ZM32.3333 29.5002C32.3333 30.6502 33.2667 31.5835 34.4167 31.5835C35.5667 31.5835 36.5 30.6502 36.5 29.5002C36.5 28.3502 35.5667 27.4168 34.4167 27.4168C33.2667 27.4168 32.3333 28.3502 32.3333 29.5002ZM11.5 27.4168C12.65 27.4168 13.5833 28.3502 13.5833 29.5002C13.5833 30.6502 12.65 31.5835 11.5 31.5835C10.35 31.5835 9.41667 30.6502 9.41667 29.5002C9.41667 28.3502 10.35 27.4168 11.5 27.4168Z" fill="#FE7B4D"/>
</svg>
