<svg width="50" height="62" viewBox="0 0 50 62" fill="none" xmlns="http://www.w3.org/2000/svg">
<path d="M29.1562 31.1703H20.8437V57.9891H29.1562V31.1703Z" fill="#FDD80C"/>
<path d="M17.7188 31.1703H5.54852V57.9891H17.7188V31.1703Z" fill="#FF001F"/>
<path d="M3.125 28.0453H3.98594H17.7187V17.9094H3.125V28.0453Z" fill="#FF001F"/>
<path d="M44.4516 31.1703H32.2813V57.9891H44.4516V31.1703Z" fill="#FF001F"/>
<path d="M32.2813 28.0453H46.0141H46.8751V17.9094H32.2813V28.0453Z" fill="#FF001F"/>
<path d="M29.1562 17.9094H20.8437V28.0453H29.1562V17.9094Z" fill="#FDD80C"/>
<path d="M48.4375 14.7844H43.1937C46.0594 12.0156 46.6953 7.5125 44.4828 4.00469C42.8953 1.49687 40.175 0 37.2062 0C35.5797 0 33.9922 0.460938 32.6156 1.33438C29.5875 3.24688 26.3484 10.5531 25.0016 13.8562C23.6531 10.5531 20.4125 3.24531 17.3875 1.33594C16.0078 0.462499 14.4219 0.00156164 12.7953 0.00156164C9.82656 0.00156164 7.10469 1.49844 5.51719 4.00781C3.30938 7.50781 3.94375 12.0078 6.80312 14.7844H1.5625C0.7 14.7844 0 15.4828 0 16.3469V29.6078C0 30.4719 0.7 31.1703 1.5625 31.1703H2.42344V59.5516C2.42344 60.4156 3.12188 61.1141 3.98594 61.1141H19.2812H30.7187H46.0141C46.8781 61.1141 47.5766 60.4156 47.5766 59.5516V31.1703H48.4375C49.3016 31.1703 50 30.4719 50 29.6078V16.3469C50 15.4828 49.3016 14.7844 48.4375 14.7844ZM46.875 28.0453H46.0141H32.2812V17.9094H46.875V28.0453ZM29.1562 17.9094V28.0453H20.8438V17.9094H29.1562ZM34.2844 3.97344C35.1625 3.41875 36.1719 3.125 37.2047 3.125C39.0969 3.125 40.8297 4.07812 41.8406 5.675C43.4531 8.23281 42.6906 11.6219 40.1375 13.2328C39.6 13.5734 37.6828 14.3672 31.5109 14.3672C30.2797 14.3672 29.1266 14.3344 28.2016 14.2953C29.9047 10.2672 32.5187 5.08906 34.2844 3.97344ZM8.15625 5.675C9.16719 4.07812 10.9016 3.125 12.7937 3.125C13.8266 3.125 14.8375 3.41875 15.7156 3.97656C17.4797 5.08906 20.0938 10.2688 21.7984 14.2953C20.8656 14.3344 19.7047 14.3687 18.4594 14.3687H18.4578C12.3062 14.3687 10.3953 13.5797 9.86094 13.2422C7.30938 11.6234 6.54531 8.22969 8.15625 5.675ZM3.125 17.9094H17.7188V28.0453H3.98594H3.125V17.9094ZM5.54844 31.1703H17.7188V57.9891H5.54844V31.1703ZM20.8438 57.9891V31.1703H29.1562V57.9891H20.8438ZM44.4516 57.9891H32.2812V31.1703H44.4516V57.9891Z" fill="#30302F"/>
</svg>
