<svg width="18" height="17" viewBox="0 0 18 17" fill="none" xmlns="http://www.w3.org/2000/svg">
<path d="M9.26869 8C11.5743 8 13.4434 6.20914 13.4434 4C13.4434 1.79086 11.5743 0 9.26869 0C6.96308 0 5.09401 1.79086 5.09401 4C5.09401 6.20914 6.96308 8 9.26869 8Z" fill="#03B1FC"/>
<path d="M17.6181 15V16C17.6181 16.2652 17.5081 16.5196 17.3124 16.7071C17.1166 16.8946 16.8512 17 16.5744 17H1.96301C1.68621 17 1.42075 16.8946 1.22503 16.7071C1.0293 16.5196 0.919342 16.2652 0.919342 16V15C0.919342 13.4087 1.57909 11.8826 2.75344 10.7574C3.9278 9.63214 5.52057 9 7.18136 9H11.356C13.0168 9 14.6096 9.63214 15.784 10.7574C16.9583 11.8826 17.6181 13.4087 17.6181 15Z" fill="#03B1FC"/>
</svg>
