<svg width="43" height="26" viewBox="0 0 43 26" fill="none" xmlns="http://www.w3.org/2000/svg">
<path d="M40.0645 16.2964C39.4192 16.2964 38.6222 16.1122 37.6698 15.5784C37.0501 15.231 36.3554 14.6077 35.551 13.8865C34.1932 12.6686 32.3291 11.0046 31.0979 11.1993C30.6495 11.2706 30.2579 11.607 29.8996 12.2285C29.6738 12.6206 29.173 12.7541 28.7813 12.5287C28.3896 12.303 28.2549 11.8021 28.481 11.4104C29.0925 10.3488 29.8859 9.73343 30.8392 9.58122C32.8437 9.25807 34.8646 11.0704 36.6447 12.6672C37.3462 13.296 38.0093 13.8906 38.4704 14.1497C39.4415 14.6945 40.2857 14.8096 40.7856 14.4655C40.9145 14.3773 40.9968 14.2749 41.0466 14.1844C40.686 14.1789 40.3587 13.934 40.2655 13.5674C40.154 13.1287 40.419 12.6831 40.8573 12.5721C41.7207 12.3514 42.3001 12.7503 42.5551 13.1955C42.9408 13.87 42.7398 14.8443 42.0776 15.5116C41.8377 15.7539 41.1741 16.2964 40.0645 16.2964Z" fill="#3CB3E2"/>
<path d="M30.7039 13.5084C30.5925 13.07 30.8571 12.6245 31.2953 12.513C32.1581 12.2936 32.7386 12.6912 32.9936 13.1363C33.3793 13.8109 33.1782 14.7852 32.5165 15.4525C32.2761 15.6943 31.6134 16.2367 30.5037 16.2367C29.858 16.2367 29.0605 16.053 28.1081 15.5183C27.4893 15.171 26.7947 14.548 25.9904 13.8269C24.633 12.6094 22.7762 10.9455 21.5363 11.1392C21.0884 11.2115 20.6963 11.5478 20.338 12.1693C20.1122 12.5615 19.6109 12.6949 19.2197 12.4696C18.828 12.2438 18.6932 11.7429 18.9194 11.3513C19.5309 10.2896 20.3243 9.67403 21.278 9.52165C23.2839 9.20333 25.3034 11.0113 27.0839 12.6076C27.7855 13.237 28.4481 13.831 28.9097 14.0897C29.8808 14.6349 30.7249 14.7496 31.2245 14.4064C31.3529 14.3178 31.4352 14.2158 31.4854 14.1258C31.1244 14.1207 30.7972 13.8749 30.7039 13.5084Z" fill="#3CB3E2"/>
<path d="M20.8425 16.3644C20.1968 16.3644 19.3993 16.1806 18.4468 15.646C17.828 15.2986 17.1334 14.6762 16.329 13.955C14.9717 12.7371 13.1144 11.0699 11.8759 11.2669C11.4271 11.3391 11.0355 11.6755 10.6776 12.297C10.4518 12.689 9.95004 12.823 9.55888 12.5972C9.16671 12.3714 9.03232 11.8705 9.25811 11.4789C9.87006 10.4174 10.6639 9.80166 11.6171 9.64923C13.6234 9.33023 15.6425 11.1388 17.4231 12.7352C18.1241 13.3645 18.7867 13.9587 19.2483 14.2173C20.219 14.7621 21.0636 14.8772 21.5631 14.5335C21.6916 14.4454 21.7738 14.3435 21.8241 14.253C21.463 14.2479 21.1359 14.0025 21.0425 13.6365C20.9311 13.1982 21.1961 12.7521 21.634 12.6407C22.4982 12.4208 23.0776 12.818 23.3322 13.264C23.718 13.9381 23.5173 14.912 22.8551 15.5797C22.6152 15.8215 21.9521 16.3644 20.8425 16.3644Z" fill="#3CB3E2"/>
<path d="M2.05566 9.58963C4.06193 9.26839 6.08108 11.0786 7.8606 12.6749C8.56255 13.3043 9.22579 13.8988 9.68732 14.1579C10.658 14.7018 11.5012 14.8179 12.0021 14.4742C12.1305 14.3855 12.2127 14.284 12.2626 14.1936C11.9015 14.1881 11.5747 13.9431 11.4815 13.5766C11.3695 13.1383 11.6346 12.6928 12.0733 12.5812C12.9353 12.36 13.5166 12.759 13.7711 13.2046C14.1564 13.8783 13.9562 14.8526 13.2941 15.5198C13.0541 15.7621 12.3905 16.305 11.2814 16.3045C10.6356 16.3045 9.83863 16.1204 8.88615 15.5865C8.26645 15.2392 7.57182 14.6158 6.7675 13.8947C5.41013 12.6772 3.55286 11.0073 2.31441 11.2074C1.86559 11.2788 1.47398 11.616 1.11606 12.2366C0.889369 12.6292 0.388518 12.7627 -0.00275707 12.5374C-0.394876 12.3116 -0.529202 11.8107 -0.303415 11.4186C0.308473 10.3569 1.10233 9.74179 2.05566 9.58963Z" fill="#3CB3E2"/>
<path d="M31.0979 20.5588C30.6495 20.6301 30.2579 20.9664 29.8996 21.588C29.6738 21.9797 29.173 22.1135 28.7813 21.8883C28.3896 21.6625 28.2549 21.1616 28.481 20.7699C29.0925 19.7088 29.8859 19.0936 30.8392 18.9409C32.8437 18.621 34.8646 20.4299 36.6447 22.0267C37.3462 22.6556 38.0093 23.2501 38.4704 23.5092C39.4415 24.054 40.2857 24.1691 40.7856 23.825C40.9145 23.7368 40.9968 23.6344 41.0466 23.5439C40.686 23.5384 40.3587 23.2935 40.2655 22.9269C40.154 22.4882 40.419 22.0426 40.8573 21.9316C41.7207 21.7113 42.3001 22.1098 42.5551 22.5549C42.9408 23.2295 42.7398 24.2038 42.0776 24.8711C41.8376 25.1133 41.174 25.6558 40.0644 25.6558C39.4191 25.6558 38.6221 25.4716 37.6696 24.9378C37.0499 24.5904 36.3553 23.9671 35.5509 23.2459C34.1932 22.028 32.329 20.365 31.0979 20.5588Z" fill="#3CB3E2"/>
<path d="M21.5363 20.4986C21.0884 20.5709 20.6963 20.9072 20.338 21.5287C20.1122 21.9209 19.6109 22.0547 19.2197 21.829C18.828 21.6032 18.6932 21.1023 18.9194 20.7106C19.5309 19.6495 20.3243 19.0339 21.278 18.8817C23.2839 18.5626 25.3034 20.3706 27.0839 21.967C27.7855 22.5963 28.4481 23.1904 28.9097 23.4491C29.8808 23.9939 30.7249 24.109 31.2245 23.7658C31.3529 23.6772 31.4352 23.5752 31.4854 23.4852C31.1244 23.4802 30.7972 23.2343 30.7039 22.8678C30.5925 22.4295 30.8571 21.9839 31.2953 21.8724C32.1581 21.6526 32.7386 22.0507 32.9936 22.4958C33.3793 23.1703 33.1782 24.1447 32.5165 24.8119C32.2761 25.0537 31.6134 25.5962 30.5037 25.5962C29.858 25.5962 29.0605 25.4124 28.1081 24.8778C27.4893 24.5304 26.7947 23.9075 25.9904 23.1864C24.633 21.9693 22.7762 20.3022 21.5363 20.4986Z" fill="#3CB3E2"/>
<path d="M11.7274 20.6542C11.2786 20.7264 10.8869 21.0628 10.5291 21.6843C10.3033 22.0764 9.80148 22.2099 9.41032 21.9845C9.01815 21.7587 8.88377 21.2578 9.10955 20.8662C9.7215 19.8051 10.5153 19.1894 11.4686 19.0372C13.4749 18.7169 15.494 20.5262 17.2745 22.1226C17.9756 22.7518 18.6382 23.346 19.0998 23.6046C20.0705 24.1494 20.915 24.2646 21.4146 23.9209C21.543 23.8327 21.6252 23.7308 21.6755 23.6403C21.3145 23.6352 20.9873 23.3899 20.894 23.0238C20.7826 22.5856 21.0475 22.1394 21.4854 22.028C22.3496 21.8081 22.9291 22.2052 23.1836 22.6514C23.5694 23.3254 23.3688 24.2993 22.7066 24.967C22.4666 25.2088 21.8035 25.7517 20.6938 25.7517C20.0482 25.7517 19.2506 25.5679 18.2982 25.0333C17.6794 24.6859 16.9848 24.0636 16.1804 23.3423C14.8231 22.1244 12.9658 20.4591 11.7274 20.6542Z" fill="#3CB3E2"/>
<path d="M2.05566 18.9495C4.06193 18.626 6.08108 20.438 7.8606 22.0344C8.56255 22.6636 9.22579 23.2582 9.68732 23.5174C10.658 24.0612 11.5012 24.1772 12.0021 23.8335C12.1305 23.7449 12.2127 23.6435 12.2626 23.553C11.9015 23.5475 11.5747 23.3025 11.4815 22.936C11.3695 22.4977 11.6346 22.0522 12.0733 21.9406C12.9353 21.7194 13.5166 22.1184 13.7711 22.564C14.1564 23.2377 13.9562 24.212 13.2941 24.8792C13.0541 25.1215 12.3905 25.6644 11.2814 25.6639C10.6356 25.6639 9.83863 25.4798 8.88615 24.9459C8.26645 24.5986 7.57182 23.9752 6.7675 23.2541C5.41013 22.0366 3.55286 20.3685 2.31441 20.5669C1.86559 20.6382 1.47398 20.9754 1.11606 21.5961C0.889369 21.9882 0.388518 22.1225 -0.00275707 21.8969C-0.394876 21.671 -0.529202 21.1702 -0.303415 20.778C0.308473 19.7168 1.10233 19.1017 2.05566 18.9495Z" fill="#3CB3E2"/>
<path d="M40.0645 6.93599C39.4192 6.93599 38.6222 6.75199 37.6698 6.21779C37.0501 5.87044 36.3554 5.24736 35.551 4.5259C34.1932 3.3082 32.3291 1.64309 31.0979 1.83867C30.6495 1.91016 30.2579 2.24676 29.8996 2.86788C29.6738 3.26 29.173 3.39409 28.7813 3.16836C28.3896 2.94263 28.2549 2.44173 28.481 2.04983C29.0925 0.988901 29.8859 0.373526 30.8392 0.221314C32.8437 -0.101561 34.8646 1.7098 36.6447 3.30663C37.3462 3.93595 38.0093 4.53029 38.4704 4.78915C39.4415 5.33393 40.2857 5.44908 40.7856 5.10516C40.9145 5.01674 40.9968 4.91436 41.0466 4.82408C40.686 4.81885 40.3587 4.57366 40.2655 4.20691C40.154 3.76861 40.419 3.32283 40.8573 3.21151C41.7207 2.99168 42.3001 3.38976 42.5551 3.83509C42.9408 4.50964 42.7398 5.48378 42.0776 6.15125C41.8377 6.39335 41.1741 6.93599 40.0645 6.93599Z" fill="#3CB3E2"/>
<path d="M31.2245 5.04605C31.3529 4.9574 31.4352 4.85547 31.4854 4.76548C31.1244 4.76019 30.7972 4.51483 30.7039 4.14824C30.5925 3.70978 30.8571 3.26416 31.2953 3.15268C32.1581 2.93308 32.7386 3.33088 32.9936 3.77626C33.3793 4.45081 33.1782 5.42473 32.5165 6.09219C32.2761 6.33395 31.6134 6.87665 30.5037 6.87665C29.858 6.87642 29.0605 6.69249 28.1081 6.15822C27.4893 5.81066 26.7947 5.18774 25.9904 4.46662C24.633 3.24937 22.7762 1.58308 21.5363 1.77917C21.0884 1.85094 20.6963 2.18771 20.338 2.80882C20.1122 3.20094 19.6109 3.33481 19.2197 3.10925C18.828 2.88352 18.6932 2.38261 18.9194 1.99072C19.5309 0.92951 20.3243 0.314192 21.278 0.161755C23.2839 -0.156339 25.3034 1.65069 27.0839 3.24729C27.7855 3.87639 28.4481 4.47073 28.9097 4.72964C29.8809 5.27437 30.725 5.38951 31.2245 5.04605Z" fill="#3CB3E2"/>
<path d="M21.5633 5.17409C21.6917 5.08567 21.7739 4.98374 21.8242 4.89346C21.4631 4.88823 21.136 4.64304 21.0427 4.27673C20.9312 3.83821 21.1962 3.39243 21.6341 3.28088C22.4983 3.06111 23.0777 3.45847 23.3323 3.90402C23.7181 4.57835 23.5174 5.55249 22.8553 6.21995C22.6153 6.46194 21.9522 7.00464 20.8425 7.00464C20.1968 7.00464 19.3993 6.8207 18.4469 6.28627C17.8281 5.93892 17.1335 5.31624 16.3291 4.59511C14.9718 3.37741 13.1145 1.71274 11.876 1.90743C11.4272 1.97914 11.0356 2.31603 10.6777 2.93708C10.4519 3.32898 9.95011 3.46285 9.55895 3.23757C9.16678 3.01178 9.0324 2.51093 9.25818 2.11904C9.87013 1.05788 10.6639 0.442505 11.6172 0.290067C13.6235 -0.0275208 15.6426 1.77929 17.4231 3.37561C18.1242 4.00493 18.7868 4.59905 19.2484 4.85791C20.2191 5.40241 21.0637 5.51756 21.5633 5.17409Z" fill="#3CB3E2"/>
<path d="M12.0021 5.11383C12.1305 5.02563 12.2127 4.92371 12.2626 4.83348C11.9015 4.82819 11.5747 4.583 11.4815 4.21647C11.3695 3.77817 11.6346 3.33239 12.0733 3.22085C12.9353 2.9999 13.5166 3.39888 13.7711 3.84427C14.1564 4.51831 13.9562 5.49245 13.2941 6.15991C13.0541 6.40168 12.3905 6.94466 11.2814 6.94437C10.6356 6.94437 9.83863 6.76044 8.88615 6.22618C8.26645 5.87883 7.57182 5.25569 6.7675 4.53429C5.41013 3.31704 3.55286 1.64962 2.31441 1.84728C1.86559 1.91877 1.47398 2.2556 1.11606 2.87671C0.889369 3.26883 0.388518 3.40276 -0.00275707 3.1772C-0.394876 2.95119 -0.529202 2.45056 -0.303415 2.05867C0.308473 0.997453 1.10228 0.382079 2.0556 0.229922C4.06187 -0.0920529 6.08102 1.71841 7.86055 3.31473C8.56249 3.94405 9.22573 4.53862 9.68726 4.79754C10.658 5.34192 11.5012 5.45774 12.0021 5.11383Z" fill="#3CB3E2"/>
</svg>
