<svg width="659" height="188" viewBox="0 0 659 188" fill="none" xmlns="http://www.w3.org/2000/svg">
<path d="M0 187.353L21.9414 180.393C43.8828 173.692 87.7656 159.381 131.648 145.719C175.531 132.058 219.414 117.746 263.297 124.902C307.18 132.058 351.062 159.381 394.945 156.128C438.828 152.875 482.711 117.746 526.593 100.637C570.476 83.2682 614.359 83.2682 636.3 83.2682H658.242V0H636.3C614.359 0 570.476 0 526.593 0C482.711 0 438.828 0 394.945 0C351.062 0 307.18 0 263.297 0C219.414 0 175.531 0 131.648 0C87.7656 0 43.8828 0 21.9414 0H0V187.353Z" fill="url(#paint0_linear)"/>
<defs>
<linearGradient id="paint0_linear" x1="398.752" y1="182.344" x2="-39.3277" y2="-103.635" gradientUnits="userSpaceOnUse">
<stop stop-color="#FCE303"/>
<stop offset="0.666244" stop-color="#FF007C" stop-opacity="0.6"/>
</linearGradient>
</defs>
</svg>
