<svg width="834" height="255" viewBox="0 0 834 255" fill="none" xmlns="http://www.w3.org/2000/svg">
<path d="M10.7211 254.521L37.9755 245.224C65.2448 236.223 119.731 217.187 174.255 198.89C228.778 180.592 283.265 161.556 338.98 166.893C394.695 172.23 456.881 173.373 512 166.893C567.119 160.413 615.097 144.831 669.424 122.619C723.735 100.112 779.04 97.3241 806.693 95.9303L834.346 94.5365L829.581 -5.00961e-05L801.928 1.39373C774.275 2.78752 718.97 5.57509 663.665 8.36266C608.359 11.1502 553.054 13.9378 497.749 16.7254C442.443 19.5129 387.138 22.3005 331.832 25.0881C276.527 27.8756 221.222 30.6632 165.916 33.4508C110.611 36.2383 55.3054 39.0259 27.6527 40.4197L0 41.8135L10.7211 254.521Z" fill="url(#paint0_radial)"/>
<defs>
<radialGradient id="paint0_radial" cx="0" cy="0" r="1" gradientUnits="userSpaceOnUse" gradientTransform="translate(764.007 109.432) rotate(-161.77) scale(416.934 1263.11)">
<stop stop-color="#FDD80C" stop-opacity="0.75"/>
<stop offset="1" stop-color="#03B1FC" stop-opacity="0.95"/>
</radialGradient>
</defs>
</svg>
