<svg width="62" height="62" viewBox="0 0 62 62" fill="none" xmlns="http://www.w3.org/2000/svg">
<path d="M31 62C48.1208 62 62 48.1208 62 31C62 13.8792 48.1208 0 31 0C13.8792 0 0 13.8792 0 31C0 48.1208 13.8792 62 31 62Z" fill="#7B519D"/>
<path d="M44.6 38.1C43.6 37.3 42.5 36.6 41.5 35.8C39.4 34.3 37.5 34.2 35.9 36.6C35 37.9 33.8 38 32.5 37.4C29 35.8 26.2 33.3 24.6 29.7C23.9 28.1 23.9 26.7 25.6 25.5C26.5 24.9 27.4 24.2 27.3 22.9C27.2 21.2 23.1 15.5 21.5 14.9C20.8 14.6 20.2 14.7 19.5 14.9C15.7 16.2 14.1 19.3 15.6 23C20 34.2 28 42 38.9 46.7C39.5 47 40.2 47.1 40.6 47.2C43.1 47.2 46 44.8 46.9 42.4C47.7 40.1 46 39.2 44.6 38.1Z" fill="white"/>
<path d="M32.3 15.7C40.3 16.9 44 20.7 45 28.8C45.1 29.5 44.8 30.7 45.9 30.7C47 30.7 46.7 29.6 46.8 28.9C46.9 21.3 40.3 14.3 32.6 14C32 14.1 30.8 13.6 30.7 14.9C30.6 15.7 31.6 15.6 32.3 15.7Z" fill="#F1F2F2"/>
<path d="M33.9 17.9C33.1 17.8 32.1 17.4 31.9 18.5C31.7 19.6 32.8 19.5 33.6 19.7C38.5 20.8 40.3 22.6 41.1 27.5C41.2 28.2 41 29.3 42.2 29.1C43.1 29 42.8 28 42.9 27.5C42.9 22.8 38.8 18.5 33.9 17.9Z" fill="#F1F2F2"/>
<path d="M34.3 21.8C33.8 21.8 33.3 21.9 33.1 22.4C32.8 23.2 33.4 23.4 34 23.5C36 23.8 37.1 25 37.3 27C37.4 27.5 37.7 28 38.2 27.9C38.9 27.8 39 27.2 39 26.5C39.1 24.3 36.5 21.7 34.3 21.8Z" fill="#F1F2F2"/>
</svg>
