<svg version="1.1" id="Шар_1" xmlns="http://www.w3.org/2000/svg" x="0" y="0" viewBox="0 0 595.28 156" xml:space="preserve"><style>.st0{fill-rule:evenodd;clip-rule:evenodd;fill:#fff}</style><path class="st0" d="M82.9 61.08H58.86v9.49h19.85v10.29H58.86v21.47h-10.3V50.79H82.9zM117.46 92.04h19.19v10.22h-29.49V50.79h10.3zM194.96 92.77h-21.32l-4.85 9.56h-11.55l26.25-51.55h3.01l24.34 51.55h-11.4l-4.48-9.56zm-4.86-10.29l-5.37-11.47-5.81 11.47h11.18zM272.75 102.33V70.79l-14.78 13.45-14.78-13.45v31.54h-10.3V50.79h3.53l21.55 19.56 21.47-19.56h3.6v51.54zM323.12 61.08v30.96h5.44v10.29H307.3V92.04h5.52V61.08h-5.52V50.79h21.26v10.29zM392.08 102.33l-28.97-30.07v30.07h-10.29V50.79h3.23l28.46 28.82V50.79h10.3v51.54zM546.71 76.52c0 14.71-11.99 26.69-26.69 26.69-14.71 0-26.69-11.99-26.69-26.69 0-14.71 11.99-26.69 26.69-26.69 14.71 0 26.69 11.99 26.69 26.69m-42.79 0c0 8.9 7.21 16.1 16.1 16.1s16.1-7.21 16.1-16.1c0-8.9-7.21-16.1-16.1-16.1s-16.1 7.21-16.1 16.1z"/><path d="M471.35 75.99c.03-6.05-2.07-12.01-6.14-16.95-4.83-5.83-12.1-9.57-20.26-9.65-14.78-.15-26.62 11.62-26.77 26.4 0 3.9 1.25 10.22 6.03 16.25h-5.15v10.29h22.32V80.05H431.1v5.2a16.185 16.185 0 01-2.83-9.17v-.22c0-4.34 1.76-8.46 4.93-11.54 3.09-3.01 7.28-4.71 11.62-4.63 4.34 0 8.46 1.76 11.47 4.85a16.18 16.18 0 014.73 10.6c.01.26.03.52.02.78 0 4.37-1.72 8.47-4.78 11.54l-.1.1c-2.39 2.29-5.25 3.8-8.42 4.37l-.1 10.4a26.54 26.54 0 0015.75-7.43l.16-.16c.67-.67 1.3-1.38 1.88-2.1 3.6-4.48 5.86-10.09 5.94-16.34v-.22a.292.292 0 01-.02-.09" fill-rule="evenodd" clip-rule="evenodd" fill="#e5007d"/><path class="st0" d="M156.69 127.53v-12.55h4.39c1.52 0 2.68.29 3.46.88.79.58 1.18 1.44 1.18 2.56 0 .61-.16 1.16-.47 1.62-.32.47-.76.81-1.32 1.03.64.16 1.15.49 1.52.97.37.49.56 1.09.56 1.79 0 1.21-.38 2.12-1.15 2.74-.77.62-1.87.94-3.29.95h-4.88zm2.58-7.29h1.91c1.3-.02 1.96-.54 1.96-1.56 0-.57-.17-.98-.5-1.23-.33-.25-.85-.38-1.56-.38h-1.81v3.17zm0 1.83v3.39h2.21c.61 0 1.08-.14 1.43-.43.34-.29.51-.69.51-1.2 0-1.15-.59-1.73-1.78-1.75h-2.37zM172.91 114.98h2.59v12.55h-2.59zM194.5 130.61h-2.39v-3.08h-7.57v3.08h-2.45l-.14-5.15h.95c.51-.42.91-1.05 1.18-1.87.28-.82.47-1.85.56-3.06L185 115h8.22v10.47h1.47l-.19 5.14zm-8.62-5.16h4.78v-8.37h-3.18l-.22 3.3c-.17 2.21-.63 3.9-1.38 5.07zM211.08 127.53h-2.59v-10.45h-5.02v10.45h-2.59v-12.55h10.2zM228.46 121.54c0 1.23-.22 2.32-.65 3.25-.44.93-1.06 1.65-1.87 2.15-.81.51-1.74.76-2.8.76-1.04 0-1.97-.25-2.78-.75-.82-.5-1.45-1.21-1.9-2.14-.45-.93-.67-1.99-.68-3.2v-.62c0-1.24.22-2.32.67-3.26.45-.94 1.07-1.66 1.89-2.16.81-.5 1.74-.75 2.79-.75 1.04 0 1.97.25 2.79.75.81.5 1.44 1.22 1.89 2.16.45.94.67 2.02.67 3.25l-.02.56zm-2.62-.57c0-1.32-.24-2.32-.71-3-.47-.68-1.14-1.03-2.02-1.03-.87 0-1.54.34-2.01 1.01-.47.68-.71 1.66-.72 2.97v.61c0 1.28.24 2.28.71 2.98.47.71 1.15 1.06 2.03 1.06.87 0 1.53-.34 2-1.02.47-.68.7-1.67.71-2.98l.01-.6zM245.15 114.98v12.55h-2.59v-4.76c-.79.17-1.61.25-2.46.25-1.59 0-2.8-.35-3.62-1.04-.82-.7-1.25-1.7-1.27-3.02v-3.98h2.59v3.93c.01.72.18 1.24.52 1.55.34.32.93.47 1.78.47.86 0 1.68-.08 2.46-.25v-5.7h2.59zM259.73 114.98h2.59v12.55h-2.59v-8.33l-5.03 8.33h-2.58v-12.55h2.58v8.35zM269.36 127.53v-12.55h4.39c1.52 0 2.68.29 3.46.88.79.58 1.18 1.44 1.18 2.56 0 .61-.16 1.16-.47 1.62-.32.47-.76.81-1.32 1.03.64.16 1.15.49 1.52.97.37.49.56 1.09.56 1.79 0 1.21-.39 2.12-1.16 2.74-.77.62-1.87.94-3.29.95h-4.87zm2.58-7.29h1.91c1.3-.02 1.96-.54 1.96-1.56 0-.57-.16-.98-.49-1.23-.33-.25-.85-.38-1.56-.38h-1.81v3.17zm0 1.83v3.39h2.21c.61 0 1.08-.14 1.43-.43.34-.29.51-.69.51-1.2 0-1.15-.59-1.73-1.78-1.75h-2.37zM292.5 124.94h-4.53l-.86 2.59h-2.75l4.67-12.55h2.4l4.7 12.55h-2.75l-.88-2.59zm-3.83-2.09h3.14l-1.58-4.7-1.56 4.7zM309.62 114.98h2.59v12.55h-2.59v-8.33l-5.02 8.33h-2.59v-12.55h2.59v8.35l5.02-8.35zm.5-3.29c0 .76-.27 1.38-.82 1.85-.55.47-1.27.7-2.16.7-.89 0-1.61-.23-2.16-.69-.55-.46-.82-1.08-.82-1.86h1.77c0 .36.11.64.32.84.22.2.51.3.89.3.37 0 .67-.1.88-.3.21-.2.32-.48.32-.84h1.78zM334.24 127.53V123h-2.1l-2.27 4.52h-2.79l2.68-5.35c-1.29-.71-1.94-1.82-1.94-3.32 0-1.23.4-2.18 1.21-2.85.8-.67 1.93-1.01 3.37-1.03h4.44v12.55h-2.6zm-3.83-8.48c0 .7.17 1.21.51 1.53.34.32.85.47 1.54.47h1.78v-3.97h-1.78c-1.37 0-2.05.65-2.05 1.97zM353.62 123.35c-.1 1.35-.6 2.41-1.5 3.19-.9.78-2.08 1.16-3.55 1.16-1.61 0-2.87-.54-3.8-1.62-.92-1.08-1.38-2.57-1.38-4.46v-.77c0-1.21.21-2.27.64-3.19.42-.92 1.03-1.62 1.82-2.12.79-.49 1.71-.74 2.75-.74 1.45 0 2.61.39 3.5 1.16.88.78 1.4 1.86 1.53 3.27h-2.59c-.06-.81-.29-1.4-.68-1.76-.39-.36-.98-.55-1.77-.55-.86 0-1.51.31-1.93.93-.43.62-.65 1.58-.66 2.87v.95c0 1.35.2 2.35.62 2.97.41.63 1.06.94 1.94.94.8 0 1.39-.18 1.79-.55.39-.36.62-.93.68-1.69h2.59zM364.21 122.4h-1.49v5.13h-2.58v-12.55h2.58v5.03h1.18l3.07-5.03h3.16l-3.87 5.94 4.27 6.61h-3.08zM378.91 123.11v4.42h-2.58v-12.55h4.89c.94 0 1.77.17 2.49.52.72.34 1.27.83 1.65 1.47.38.63.58 1.36.58 2.17 0 1.23-.42 2.2-1.26 2.91-.84.71-2.01 1.06-3.49 1.06h-2.28zm0-2.1h2.31c.68 0 1.21-.16 1.56-.48.36-.32.54-.78.54-1.38 0-.61-.18-1.11-.54-1.49-.36-.38-.86-.57-1.5-.59h-2.37v3.94zM398.05 124.94h-4.53l-.86 2.59h-2.75l4.67-12.55h2.4l4.7 12.55h-2.75l-.88-2.59zm-3.83-2.09h3.14l-1.58-4.7-1.56 4.7zM407.64 127.53v-12.55h4.4c1.52 0 2.68.29 3.46.88.79.58 1.18 1.44 1.18 2.56 0 .61-.16 1.16-.47 1.62-.32.47-.76.81-1.32 1.03.64.16 1.15.49 1.52.97.37.49.56 1.09.56 1.79 0 1.21-.38 2.12-1.15 2.74-.77.62-1.87.94-3.29.95h-4.89zm2.59-7.29h1.91c1.3-.02 1.96-.54 1.96-1.56 0-.57-.17-.98-.5-1.23-.33-.25-.85-.38-1.56-.38h-1.81v3.17zm0 1.83v3.39h2.21c.61 0 1.08-.14 1.43-.43.34-.29.51-.69.51-1.2 0-1.15-.59-1.73-1.78-1.75h-2.37zM434.01 121.54c0 1.23-.22 2.32-.66 3.25-.44.93-1.06 1.65-1.87 2.15-.81.51-1.74.76-2.8.76-1.04 0-1.97-.25-2.78-.75-.82-.5-1.45-1.21-1.9-2.14-.45-.93-.68-1.99-.68-3.2v-.62c0-1.24.22-2.32.67-3.26.45-.94 1.07-1.66 1.89-2.16.81-.5 1.74-.75 2.79-.75s1.97.25 2.79.75c.81.5 1.44 1.22 1.89 2.16.45.94.67 2.02.67 3.25l-.01.56zm-2.62-.57c0-1.32-.24-2.32-.71-3-.47-.68-1.14-1.03-2.02-1.03-.87 0-1.54.34-2.01 1.01-.47.68-.71 1.66-.72 2.97v.61c0 1.28.24 2.28.71 2.98.47.71 1.15 1.06 2.03 1.06.87 0 1.53-.34 2-1.02.47-.68.7-1.67.71-2.98l.01-.6z"/></svg>