<?xml version="1.0" encoding="UTF-8"?><!DOCTYPE svg PUBLIC "-//W3C//DTD SVG 1.1//EN" "http://www.w3.org/Graphics/SVG/1.1/DTD/svg11.dtd"><svg xmlns="http://www.w3.org/2000/svg"><defs>
        <style>
            .cls-1{fill:#101820}
        </style>
    </defs><symbol id="icon-caret" viewBox="0 0 20 11">
    <path d="M19.724 9.476l-1.37 1.274-8.012-7.516-8.014 7.516-1.37-1.274L10.343.75l9.382 8.726z"/>
</symbol><symbol id="icon-checkmark-blue" viewBox="0 0 19 14">
    <path d="M17.69 1L6.22 12 1.008 7" stroke-width="2" stroke-miterlimit="10"/>
</symbol><symbol id="icon-checkmark-pink" viewBox="0 0 19 14">
    <path d="M17.591 1L6.123 12 .91 7" stroke-width="2" stroke-miterlimit="10"/>
</symbol><symbol id="icon-checkmark" viewBox="0 0 24 24">
    <path clip-rule="evenodd" fill-rule="evenodd" stroke-miterlimit="10" stroke-width="2" d="M20 6L9 17l-5-5"/>
</symbol><symbol id="icon-chevron" viewBox="0 0 10 16">
    <path d="M8.832 0L10 1.168 3.11 8 10 14.832 8.832 16l-8-8 8-8z"/>
</symbol><symbol id="icon-clock" viewBox="0 0 32 32">
    
    <title/>
    <g data-name="Layer 15" id="Layer_15">
        <path class="cls-1" d="M16 31a15 15 0 1 1 15-15 15 15 0 0 1-15 15zm0-28a13 13 0 1 0 13 13A13 13 0 0 0 16 3z"/>
        <path class="cls-1" d="M20.24 21.66l-4.95-4.95A1 1 0 0 1 15 16V8h2v7.59l4.66 4.65z"/>
    </g>
</symbol><symbol id="icon-close" viewBox="0 0 19 19">
    <path d="M19 1.061L17.939 0 9.5 8.446 1.061 0 0 1.061 8.446 9.5 0 17.939 1.061 19 9.5 10.554 17.939 19 19 17.939 10.554 9.5 19 1.061z"/>
</symbol><symbol id="icon-hamburger" viewBox="0 0 20 15">
    <path d="M0 .5h20"/>
    <path d="M0 7.5h20"/>
    <path d="M0 14.5h20"/>
</symbol><symbol id="icon-instagram" viewBox="0 0 32 32">
    <style>
        .st0{fill:url(#SVGID_1_)}.st1{fill:#fff}
    </style>
    <linearGradient gradientTransform="rotate(-60 -857.1 520.09) scale(32.0053)" gradientUnits="userSpaceOnUse" id="SVGID_1_" x2="1" y1="32" y2="32">
        <stop offset="0" stop-color="#fec053"/>
        <stop offset=".327" stop-color="#f2203e"/>
        <stop offset=".648" stop-color="#b729a8"/>
        <stop offset="1" stop-color="#5342d6"/>
    </linearGradient>
    <path class="st0" d="M16 0c8.8 0 16 7.2 16 16s-7.2 16-16 16S0 24.8 0 16 7.2 0 16 0z"/>
    <path class="st1" d="M20.7 6h-9.5C8.3 6 6 8.4 6 11.4v9.2c0 2.9 2.3 5.3 5.3 5.4h9.5c2.9 0 5.3-2.4 5.3-5.4v-9.2C26 8.4 23.7 6 20.7 6zm3.5 14.5c0 2-1.6 3.7-3.7 3.7h-9.1c-2 0-3.7-1.7-3.6-3.7v-9c0-2 1.6-3.7 3.6-3.7h9.1c2 0 3.7 1.7 3.7 3.7v9z"/>
    <path class="st1" d="M16 10.9c-2.8-.1-5.2 2.2-5.2 5-.1 2.8 2.2 5.2 5 5.2s5.2-2.2 5.2-5V16c.1-2.8-2.2-5.1-5-5.1zm0 8.4a3.4 3.4 0 0 1-3.4-3.2c0-1.8 1.4-3.3 3.2-3.4s3.3 1.4 3.4 3.2v.1c.1 1.8-1.4 3.3-3.2 3.3z"/>
    <path class="st1" d="M21.3 9.4c.6 0 1.1.5 1.1 1.2s-.5 1.2-1.1 1.2-1.1-.5-1.1-1.2.5-1.2 1.1-1.2z"/>
</symbol><symbol id="icon-mail" viewBox="0 0 21 15">
    <path fill-rule="evenodd" clip-rule="evenodd" d="M10.385 8.96L20.121.634H.649l9.736 8.324zm-2.63-.922l2.63 2.13 2.588-2.13 7.148 6.044H.649l7.106-6.044zM0 13.442V1.275l7.14 6.083L0 13.442zm20.77 0V1.275l-7.14 6.083 7.14 6.084z"/>
</symbol><symbol id="icon-messenger" viewBox="0 0 1000 1000">
    <style>
        .st0{fill:url(#tweaked_values_1_)}.st1{fill:#fff}
    </style>
    <title/>
    <linearGradient gradientTransform="rotate(-90 1903 1903)" gradientUnits="userSpaceOnUse" id="tweaked_values_1_" x1="2806" x2="3806" y1="500" y2="500">
        <stop offset=".114" stop-color="#006dff"/>
        <stop offset=".949" stop-color="#00c6ff"/>
    </linearGradient>
    <path class="st0" d="M1000 500c0 276.1-223.9 500-500 500S0 776.1 0 500 223.9 0 500 0s500 223.9 500 500z" id="tweaked_values"/>
    <path class="st1" d="M499.5 162.1c-185 0-335 140.3-335 313.3 0 98.4 48.5 186.2 124.5 243.7V839l114.3-63.4c30.5 8.5 62.8 13.1 96.2 13.1 185 0 335-140.3 335-313.3s-150-313.3-335-313.3zm35.3 420.1l-86.6-90-166.9 92.3 182.9-194.1 86.6 90L717.7 388 534.8 582.2z" id="Bubble_Shape"/>
</symbol><symbol id="icon-phone" viewBox="0 0 139 139">
    <path d="M67.317 81.952c-9.284-7.634-15.483-17.054-18.742-22.414l-2.431-4.583c.85-.912 7.332-7.853 10.141-11.619 3.53-4.729-1.588-9-1.588-9s-14.401-14.403-17.683-17.26c-3.282-2.861-7.06-1.272-7.06-1.272-6.898 4.457-14.049 8.332-14.478 26.968-.016 17.448 13.229 35.444 27.552 49.376 14.346 15.734 34.043 31.504 53.086 31.486 18.634-.425 22.508-7.575 26.965-14.473 0 0 1.59-3.775-1.268-7.06-2.86-3.284-17.265-17.688-17.265-17.688s-4.268-5.119-8.998-1.586c-3.525 2.635-9.855 8.496-11.38 9.917.003.005-10.586-5.64-16.851-10.792z"/>
</symbol><symbol id="icon-telegram" viewBox="0 0 256 256">
    <path d="M128 0C57.307 0 0 57.307 0 128s57.307 128 128 128 128-57.307 128-128S198.693 0 128 0z"/>
    <path d="M190.283 73.63L167.42 188.899s-3.197 7.994-11.99 4.157l-52.758-40.448-19.184-9.272-32.294-10.872s-4.956-1.758-5.436-5.595c-.48-3.837 5.596-5.915 5.596-5.915l128.376-50.36s10.552-4.636 10.552 3.038"/>
    <path d="M98.618 187.603s-1.54-.144-3.46-6.22c-1.917-6.075-11.67-38.049-11.67-38.049l77.538-49.24s4.477-2.718 4.317 0c0 0 .799.48-1.6 2.718-2.397 2.239-60.91 54.836-60.91 54.836"/>
    <path d="M122.901 168.115l-20.867 19.026s-1.632 1.238-3.416.462l3.996-35.34"/>
</symbol><symbol id="icon-user" viewBox="0 0 18 17">
    <path d="M9.269 8c2.305 0 4.174-1.79 4.174-4S11.574 0 9.27 0C6.963 0 5.094 1.79 5.094 4s1.87 4 4.175 4z"/>
    <path d="M17.618 15v1a.98.98 0 0 1-.306.707 1.068 1.068 0 0 1-.738.293H1.963c-.277 0-.542-.105-.738-.293A.98.98 0 0 1 .919 16v-1c0-1.591.66-3.117 1.834-4.243A6.403 6.403 0 0 1 7.181 9h4.175c1.66 0 3.254.632 4.428 1.757A5.876 5.876 0 0 1 17.618 15z"/>
</symbol><symbol id="icon-viber" viewBox="0 0 62 62">
    <path d="M31 62c17.12 0 31-13.88 31-31C62 13.88 48.12 0 31 0 13.88 0 0 13.88 0 31c0 17.12 13.88 31 31 31z"/>
    <path d="M44.6 38.1c-1-.8-2.1-1.5-3.1-2.3-2.1-1.5-4-1.6-5.6.8-.9 1.3-2.1 1.4-3.4.8-3.5-1.6-6.3-4.1-7.9-7.7-.7-1.6-.7-3 1-4.2.9-.6 1.8-1.3 1.7-2.6-.1-1.7-4.2-7.4-5.8-8-.7-.3-1.3-.2-2 0-3.8 1.3-5.4 4.4-3.9 8.1C20 34.2 28 42 38.9 46.7c.6.3 1.3.4 1.7.5 2.5 0 5.4-2.4 6.3-4.8.8-2.3-.9-3.2-2.3-4.3z"/>
    <path d="M32.3 15.7c8 1.2 11.7 5 12.7 13.1.1.7-.2 1.9.9 1.9s.8-1.1.9-1.8c.1-7.6-6.5-14.6-14.2-14.9-.6.1-1.8-.4-1.9.9-.1.8.9.7 1.6.8z"/>
    <path d="M33.9 17.9c-.8-.1-1.8-.5-2 .6-.2 1.1.9 1 1.7 1.2 4.9 1.1 6.7 2.9 7.5 7.8.1.7-.1 1.8 1.1 1.6.9-.1.6-1.1.7-1.6 0-4.7-4.1-9-9-9.6z"/>
    <path d="M34.3 21.8c-.5 0-1 .1-1.2.6-.3.8.3 1 .9 1.1 2 .3 3.1 1.5 3.3 3.5.1.5.4 1 .9.9.7-.1.8-.7.8-1.4.1-2.2-2.5-4.8-4.7-4.7z"/>
</symbol></svg>