<svg width="24" height="26" viewBox="0 0 24 26" fill="none" xmlns="http://www.w3.org/2000/svg">
<path d="M12.7195 19.8613V6.05863L16.1955 2.58185C16.1955 2.58185 16.7045 2.07282 16.1955 1.56308C15.6865 1.05405 15.1775 1.56308 15.1775 1.56308L12.7195 4.0218V0.719979C12.7195 0.719979 12.7195 0 11.9995 0C11.2795 0 11.2795 0.719979 11.2795 0.719979V4.0218L8.82149 1.56308C8.82149 1.56308 8.31247 1.05405 7.80344 1.56308C7.29442 2.07282 7.80344 2.58185 7.80344 2.58185L11.2795 6.05863V19.8613L7.80344 23.3374C7.80344 23.3374 7.29442 23.8464 7.80344 24.3555C8.31247 24.8645 8.82149 24.3555 8.82149 24.3555L11.2795 21.8974V25.1993C11.2795 25.1993 11.2795 25.9193 11.9995 25.9193C12.7195 25.9193 12.7195 25.1993 12.7195 25.1993V21.8974L15.1775 24.3555C15.1775 24.3555 15.6865 24.8645 16.1955 24.3555C16.7045 23.8464 16.1955 23.3374 16.1955 23.3374L12.7195 19.8613Z" fill="#88C9F9"/>
<path d="M23.967 15.0231C23.7805 14.3276 23.085 14.514 23.085 14.514L18.3367 15.7862L6.3829 8.88451L5.11069 4.13625C5.11069 4.13625 4.92422 3.44075 4.22872 3.62722C3.5325 3.8137 3.71969 4.5092 3.71969 4.5092L4.61967 7.86718L1.75991 6.21555C1.75991 6.21555 1.13641 5.85556 0.776419 6.47906C0.41643 7.10256 1.03993 7.46255 1.03993 7.46255L3.89897 9.11346L0.540986 10.0127C0.540986 10.0127 -0.155234 10.1992 0.0319608 10.8947C0.218435 11.5909 0.913935 11.4044 0.913935 11.4044L5.66292 10.1322L17.6167 17.034L18.8889 21.7829C18.8889 21.7829 19.0754 22.4784 19.7709 22.292C20.4664 22.1048 20.2799 21.41 20.2799 21.41L19.38 18.052L22.2397 19.7029C22.2397 19.7029 22.8639 20.0629 23.2239 19.4401C23.5839 18.8159 22.9597 18.4559 22.9597 18.4559L20.1007 16.805L23.4579 15.9057C23.4579 15.905 24.1534 15.7186 23.967 15.0231Z" fill="#88C9F9"/>
<path d="M23.4579 10.0127L20.1 9.11271L22.9597 7.46179C22.9597 7.46179 23.5839 7.10108 23.2239 6.47758C22.8632 5.85336 22.2397 6.21407 22.2397 6.21407L19.3807 7.86426L20.28 4.507C20.28 4.507 20.4664 3.8115 19.7709 3.62502C19.0754 3.43855 18.889 4.13405 18.889 4.13405L17.6167 8.88231L5.66221 15.7862L0.914668 14.5133C0.914668 14.5133 0.219168 14.3268 0.0326932 15.0223C-0.154501 15.7185 0.541719 15.9043 0.541719 15.9043L3.89898 16.8035L1.03994 18.4544C1.03994 18.4544 0.417162 18.8151 0.777152 19.4386C1.13714 20.0614 1.75992 19.7014 1.75992 19.7014L4.61968 18.0505L3.71971 21.4078C3.71971 21.4078 3.53323 22.104 4.22873 22.2898C4.92495 22.477 5.11143 21.7815 5.11143 21.7815L6.38435 17.0318L18.3389 10.1308L23.0872 11.4037C23.0872 11.4037 23.7826 11.5902 23.9691 10.8947C24.1527 10.1984 23.4579 10.0127 23.4579 10.0127Z" fill="#88C9F9"/>
</svg>
