<svg width="24" height="27" viewBox="0 0 24 27" fill="none" xmlns="http://www.w3.org/2000/svg">
<path d="M24 13.2488C24 12.8718 23.91 12.518 23.7594 12.1964C22.7542 8.95371 18.0483 9.19058 11.3546 9.03242C10.2355 9.00618 10.8756 7.68468 11.2684 4.78381C11.524 2.89712 10.3075 0 8.2626 0C4.891 0 8.13442 2.6595 5.15335 9.2363C3.5605 12.7503 0 10.7819 0 14.3117V22.3464C0 23.7204 0.134924 25.0412 2.06734 25.2585C3.94053 25.4692 3.51927 26.8042 6.2215 26.8042H19.7469C21.1246 26.8042 22.2452 25.6828 22.2452 24.3051C22.2452 23.7339 22.0451 23.2137 21.722 22.7924C22.4866 22.3644 23.0113 21.5564 23.0113 20.6194C23.0113 20.0497 22.8119 19.5295 22.4896 19.109C23.2564 18.6817 23.7826 17.8729 23.7826 16.9345C23.7826 16.2531 23.5068 15.6355 23.0623 15.1835C23.6297 14.7255 24 14.0329 24 13.2488Z" fill="#FFDB5E"/>
<path d="M15.0531 15.7472H21.5024C22.3794 15.7472 23.2025 15.2779 23.6507 14.5231C23.8351 14.212 23.7324 13.8095 23.4206 13.6244C23.1095 13.4392 22.707 13.5434 22.5219 13.8545C22.3097 14.2135 21.9177 14.4354 21.5017 14.4354H14.8979C14.2435 14.4354 13.7113 13.9032 13.7113 13.2488C13.7113 12.5945 14.2435 12.0623 14.8979 12.0623H19.3107C19.6727 12.0623 19.9665 11.7684 19.9665 11.4064C19.9665 11.0443 19.6727 10.7505 19.3107 10.7505H14.8971C13.5194 10.7505 12.3988 11.8711 12.3988 13.2488C12.3988 14.0172 12.7549 14.697 13.302 15.1558C12.8411 15.6093 12.554 16.2389 12.554 16.9345C12.554 17.7051 12.9123 18.3872 13.4625 18.8452C13.0045 19.2979 12.7204 19.9253 12.7204 20.6194C12.7204 21.459 13.1394 22.1995 13.7765 22.653C13.3837 23.0945 13.1379 23.6695 13.1379 24.3051C13.1379 25.6828 14.2585 26.8035 15.6362 26.8035H19.7469C20.6239 26.8035 21.4477 26.335 21.896 25.5801C22.0811 25.2691 21.9784 24.8665 21.6673 24.6814C21.3555 24.4978 20.953 24.5989 20.7686 24.91C20.555 25.2691 20.1629 25.4917 19.7469 25.4917H15.6362C14.9819 25.4917 14.4497 24.9595 14.4497 24.3051C14.4497 23.6507 14.9819 23.1185 15.6362 23.1185H20.513C21.39 23.1185 22.2145 22.6493 22.662 21.8945C22.8472 21.5826 22.7445 21.1801 22.4334 20.9957C22.1193 20.8076 21.7183 20.9133 21.5347 21.2243C21.318 21.5894 20.9358 21.8068 20.513 21.8068H15.2187C14.5643 21.8068 14.0321 21.2738 14.0321 20.6194C14.0321 19.9651 14.5643 19.4329 15.2187 19.4329H21.2836C22.1606 19.4329 22.9843 18.9644 23.4326 18.2095C23.6177 17.8985 23.5151 17.4959 23.204 17.3108C22.8914 17.1264 22.4896 17.2283 22.3052 17.5394C22.0886 17.9037 21.7063 18.1211 21.2836 18.1211H15.0531C14.3987 18.1211 13.8665 17.5889 13.8665 16.9345C13.8665 16.2801 14.3979 15.7472 15.0531 15.7472Z" fill="#EE9547"/>
</svg>
