<?xml version="1.0" encoding="UTF-8"?><!DOCTYPE svg PUBLIC "-//W3C//DTD SVG 1.1//EN" "http://www.w3.org/Graphics/SVG/1.1/DTD/svg11.dtd"><svg xmlns="http://www.w3.org/2000/svg"><defs>
        <style>
            .cls-1{fill:#101820}
        </style>
    </defs><symbol id="icon-clock" viewBox="0 0 32 32">
    
    <title/>
    <g data-name="Layer 15" id="Layer_15">
        <path class="cls-1" d="M16 31a15 15 0 1 1 15-15 15 15 0 0 1-15 15zm0-28a13 13 0 1 0 13 13A13 13 0 0 0 16 3z"/>
        <path class="cls-1" d="M20.24 21.66l-4.95-4.95A1 1 0 0 1 15 16V8h2v7.59l4.66 4.65z"/>
    </g>
</symbol><symbol id="icon-hamburger" viewBox="0 0 20 15">
    <path d="M0 .5h20"/>
    <path d="M0 7.5h20"/>
    <path d="M0 14.5h20"/>
</symbol><symbol id="icon-mail" viewBox="0 0 21 15">
    <path fill-rule="evenodd" clip-rule="evenodd" d="M10.385 8.96L20.121.634H.649l9.736 8.324zm-2.63-.922l2.63 2.13 2.588-2.13 7.148 6.044H.649l7.106-6.044zM0 13.442V1.275l7.14 6.083L0 13.442zm20.77 0V1.275l-7.14 6.083 7.14 6.084z"/>
</symbol><symbol id="icon-phone" viewBox="0 0 139 139">
    <path d="M67.317 81.952c-9.284-7.634-15.483-17.054-18.742-22.414l-2.431-4.583c.85-.912 7.332-7.853 10.141-11.619 3.53-4.729-1.588-9-1.588-9s-14.401-14.403-17.683-17.26c-3.282-2.861-7.06-1.272-7.06-1.272-6.898 4.457-14.049 8.332-14.478 26.968-.016 17.448 13.229 35.444 27.552 49.376 14.346 15.734 34.043 31.504 53.086 31.486 18.634-.425 22.508-7.575 26.965-14.473 0 0 1.59-3.775-1.268-7.06-2.86-3.284-17.265-17.688-17.265-17.688s-4.268-5.119-8.998-1.586c-3.525 2.635-9.855 8.496-11.38 9.917.003.005-10.586-5.64-16.851-10.792z"/>
</symbol></svg>