<?xml version="1.0" encoding="UTF-8"?><!DOCTYPE svg PUBLIC "-//W3C//DTD SVG 1.1//EN" "http://www.w3.org/Graphics/SVG/1.1/DTD/svg11.dtd"><svg xmlns="http://www.w3.org/2000/svg"><defs>
        <style>
            .cls-1{fill:#101820}
        </style>
    
        <linearGradient id="a" x1="30" y1="13.7" x2="45.7" y2="13.7" gradientUnits="userSpaceOnUse">
            <stop stop-color="#FDD80C"/>
            <stop offset="1" stop-color="#FE7B4D"/>
        </linearGradient>
    </defs><symbol id="icon-bus-back" viewBox="0 0 50 36">
    <path fill-rule="evenodd" clip-rule="evenodd" d="M6.25 9.702c0-.575.469-1.042 1.042-1.042h7.291v8.363c-3.048.102-5.86.515-8.333 2.03v-9.35zM16.667 8.66h10.416v8.334H16.667V8.66zm12.5 0h10.416v8.334H29.167V8.66zm-25 1.042V23.93c3.073-4.458 7.052-4.852 12.5-4.852h25v-12.5H7.292a3.125 3.125 0 0 0-3.125 3.125zM2.083 8.66A4.17 4.17 0 0 1 6.25 4.494h10.417V2.41h18.75v2.084h10.416a2.1 2.1 0 0 1 1.473.61 2.1 2.1 0 0 1 .61 1.473v21.21l-4.253.85c-.421-3.039-3.007-5.393-6.163-5.393a6.254 6.254 0 0 0-6.25 6.25H20.833a6.255 6.255 0 0 0-6.25-6.25 6.255 6.255 0 0 0-6.25 6.25h-6.25V8.66zm8.334 20.834a4.17 4.17 0 0 1 4.166-4.167 4.17 4.17 0 0 1 4.167 4.167 4.17 4.17 0 0 1-4.167 4.166 4.17 4.17 0 0 1-4.166-4.166zm22.916 0a4.17 4.17 0 0 1 4.167-4.167 4.17 4.17 0 0 1 4.167 4.167A4.17 4.17 0 0 1 37.5 33.66a4.17 4.17 0 0 1-4.167-4.166zM0 8.66v20.834c0 1.152.931 2.083 2.083 2.083h6.634c.862 2.421 3.152 4.167 5.866 4.167 2.715 0 5.004-1.746 5.867-4.167h11.183c.863 2.421 3.152 4.167 5.867 4.167a6.258 6.258 0 0 0 6.119-4.973l4.706-.942A2.083 2.083 0 0 0 50 27.788V6.578a4.168 4.168 0 0 0-4.167-4.168H37.5c0-1.15-.933-2.083-2.083-2.083h-18.75a2.083 2.083 0 0 0-2.084 2.083H6.25A6.25 6.25 0 0 0 0 8.66zm16.667 20.834a2.084 2.084 0 1 1-4.169-.002 2.084 2.084 0 0 1 4.169.002zM37.5 27.41a2.084 2.084 0 1 0 .001 4.169 2.084 2.084 0 0 0-.001-4.169z"/>
</symbol><symbol id="icon-bus" viewBox="0 0 49 36">
    <path fill-rule="evenodd" clip-rule="evenodd" d="M42.75 9.709c0-.575-.469-1.042-1.042-1.042h-7.291v8.362c3.048.102 5.86.515 8.333 2.03v-9.35zM32.333 8.667H21.917V17h10.416V8.667zm-12.5 0H9.417V17h10.416V8.667zm25 1.042v14.227c-3.073-4.459-7.052-4.852-12.5-4.852h-25v-12.5h34.375a3.125 3.125 0 0 1 3.125 3.125zm2.084-1.042A4.17 4.17 0 0 0 42.75 4.5H32.333V2.417h-18.75V4.5H3.167a2.1 2.1 0 0 0-1.473.61 2.1 2.1 0 0 0-.61 1.473v21.21l4.253.85c.421-3.039 3.007-5.393 6.163-5.393 3.45 0 6.25 2.802 6.25 6.25h10.417a6.255 6.255 0 0 1 6.25-6.25 6.255 6.255 0 0 1 6.25 6.25h6.25V8.667zM38.583 29.5a4.17 4.17 0 0 0-4.166-4.166A4.17 4.17 0 0 0 30.25 29.5a4.17 4.17 0 0 0 4.167 4.167 4.17 4.17 0 0 0 4.166-4.167zm-22.916 0a4.17 4.17 0 0 0-4.167-4.166A4.17 4.17 0 0 0 7.333 29.5a4.17 4.17 0 0 0 4.167 4.167 4.17 4.17 0 0 0 4.167-4.167zM49 8.667V29.5a2.081 2.081 0 0 1-2.083 2.084h-6.634c-.862 2.42-3.152 4.166-5.866 4.166-2.715 0-5.005-1.746-5.867-4.166H17.367c-.863 2.42-3.152 4.166-5.867 4.166a6.258 6.258 0 0 1-6.119-4.973l-4.706-.941A2.083 2.083 0 0 1-1 27.794V6.584a4.168 4.168 0 0 1 4.167-4.167H11.5c0-1.15.933-2.084 2.083-2.084h18.75c1.152 0 2.084.934 2.084 2.084h8.333A6.25 6.25 0 0 1 49 8.667zM32.333 29.5a2.084 2.084 0 1 0 4.169-.001 2.084 2.084 0 0 0-4.169.001zM11.5 27.417a2.084 2.084 0 1 1-.002 4.168 2.084 2.084 0 0 1 .002-4.168z"/>
</symbol><symbol id="icon-caret" viewBox="0 0 20 11">
    <path d="M19.724 9.476l-1.37 1.274-8.012-7.516-8.014 7.516-1.37-1.274L10.343.75l9.382 8.726z"/>
</symbol><symbol id="icon-checkmark-blue" viewBox="0 0 19 14">
    <path d="M17.69 1L6.22 12 1.008 7" stroke-width="2" stroke-miterlimit="10"/>
</symbol><symbol id="icon-checkmark-pink" viewBox="0 0 19 14">
    <path d="M17.591 1L6.123 12 .91 7" stroke-width="2" stroke-miterlimit="10"/>
</symbol><symbol id="icon-checkmark" viewBox="0 0 24 24">
    <path clip-rule="evenodd" fill-rule="evenodd" stroke-miterlimit="10" stroke-width="2" d="M20 6L9 17l-5-5"/>
</symbol><symbol id="icon-chevron" viewBox="0 0 10 16">
    <path d="M8.832 0L10 1.168 3.11 8 10 14.832 8.832 16l-8-8 8-8z"/>
</symbol><symbol id="icon-clock" viewBox="0 0 32 32">
    
    <title/>
    <g data-name="Layer 15" id="Layer_15">
        <path class="cls-1" d="M16 31a15 15 0 1 1 15-15 15 15 0 0 1-15 15zm0-28a13 13 0 1 0 13 13A13 13 0 0 0 16 3z"/>
        <path class="cls-1" d="M20.24 21.66l-4.95-4.95A1 1 0 0 1 15 16V8h2v7.59l4.66 4.65z"/>
    </g>
</symbol><symbol id="icon-close" viewBox="0 0 19 19">
    <path d="M19 1.061L17.939 0 9.5 8.446 1.061 0 0 1.061 8.446 9.5 0 17.939 1.061 19 9.5 10.554 17.939 19 19 17.939 10.554 9.5 19 1.061z"/>
</symbol><symbol id="icon-direction" viewBox="0 0 46 28">
    <path stroke-width="2" d="M0 13.7h42"/>
    <path d="M32 27.4l-2-2 11.8-11.7L30 2l2-2 13.7 13.7L32 27.4z"/>
    
</symbol><symbol id="icon-gift" viewBox="0 0 50 62">
    <path d="M29.156 31.17h-8.312v26.82h8.312V31.17z"/>
    <path d="M17.719 31.17H5.549v26.82h12.17V31.17z"/>
    <path d="M3.125 28.045h14.594V17.91H3.125v10.136z"/>
    <path d="M44.452 31.17h-12.17v26.82h12.17V31.17z"/>
    <path d="M32.281 28.045H46.875V17.91H32.281v10.136z"/>
    <path d="M29.156 17.91h-8.312v10.135h8.312V17.91z"/>
    <path d="M48.438 14.784h-5.244c2.865-2.768 3.501-7.272 1.289-10.78A8.569 8.569 0 0 0 37.206 0c-1.626 0-3.214.46-4.59 1.334-3.029 1.913-6.268 9.22-7.614 12.522-1.349-3.303-4.59-10.61-7.614-12.52A8.569 8.569 0 0 0 12.794.002a8.57 8.57 0 0 0-7.278 4.006c-2.208 3.5-1.573 8 1.286 10.776h-5.24C.7 14.784 0 15.483 0 16.347v13.26c0 .865.7 1.563 1.563 1.563h.86v28.382c0 .864.699 1.562 1.563 1.562h42.028c.864 0 1.563-.698 1.563-1.562V31.17h.86c.865 0 1.563-.698 1.563-1.562V16.347c0-.864-.698-1.563-1.563-1.563zm-1.563 13.261H32.281V17.91h14.594v10.136zM29.156 17.91v10.136h-8.312V17.91h8.312zm5.128-13.936a5.461 5.461 0 0 1 2.92-.848c1.893 0 3.626.953 4.637 2.55 1.612 2.558.85 5.947-1.703 7.558-.538.34-2.455 1.134-8.627 1.134a79.47 79.47 0 0 1-3.31-.072c1.704-4.028 4.318-9.206 6.083-10.322zM8.156 5.675a5.46 5.46 0 0 1 4.638-2.55c1.033 0 2.043.294 2.922.852 1.764 1.112 4.378 6.292 6.082 10.318-.932.04-2.093.074-3.339.074h-.001c-6.152 0-8.063-.79-8.597-1.127a5.5 5.5 0 0 1-1.705-7.567zM3.125 17.909h14.594v10.136H3.125V17.91zM5.548 31.17h12.17v26.82H5.549V31.17zm15.296 26.82V31.17h8.312v26.82h-8.312zm23.608 0h-12.17V31.17h12.17v26.82z"/>
</symbol><symbol id="icon-hamburger" viewBox="0 0 20 15">
    <path d="M0 .5h20"/>
    <path d="M0 7.5h20"/>
    <path d="M0 14.5h20"/>
</symbol><symbol id="icon-home" viewBox="0 0 47 45">
    <path d="M23.5.211L.407 23.62h7.445v20.632h31.422V23.62h7.445L23.5.21zM19.651 42.36V30.686h7.698V42.36H19.65zm17.667-20.632v20.632h-8.076V28.794H17.758v13.565H9.682V21.727H4.887L23.5 2.925l18.613 18.802h-4.795z"/>
    <path d="M24.333 9.615l-1.339 1.338 10.931 10.93 1.338-1.338-10.93-10.93z"/>
</symbol><symbol id="icon-instagram" viewBox="0 0 32 32">
    <style>
        .st0{fill:url(#SVGID_1_)}.st1{fill:#fff}
    </style>
    <linearGradient gradientTransform="rotate(-60 -857.1 520.09) scale(32.0053)" gradientUnits="userSpaceOnUse" id="SVGID_1_" x2="1" y1="32" y2="32">
        <stop offset="0" stop-color="#fec053"/>
        <stop offset=".327" stop-color="#f2203e"/>
        <stop offset=".648" stop-color="#b729a8"/>
        <stop offset="1" stop-color="#5342d6"/>
    </linearGradient>
    <path class="st0" d="M16 0c8.8 0 16 7.2 16 16s-7.2 16-16 16S0 24.8 0 16 7.2 0 16 0z"/>
    <path class="st1" d="M20.7 6h-9.5C8.3 6 6 8.4 6 11.4v9.2c0 2.9 2.3 5.3 5.3 5.4h9.5c2.9 0 5.3-2.4 5.3-5.4v-9.2C26 8.4 23.7 6 20.7 6zm3.5 14.5c0 2-1.6 3.7-3.7 3.7h-9.1c-2 0-3.7-1.7-3.6-3.7v-9c0-2 1.6-3.7 3.6-3.7h9.1c2 0 3.7 1.7 3.7 3.7v9z"/>
    <path class="st1" d="M16 10.9c-2.8-.1-5.2 2.2-5.2 5-.1 2.8 2.2 5.2 5 5.2s5.2-2.2 5.2-5V16c.1-2.8-2.2-5.1-5-5.1zm0 8.4a3.4 3.4 0 0 1-3.4-3.2c0-1.8 1.4-3.3 3.2-3.4s3.3 1.4 3.4 3.2v.1c.1 1.8-1.4 3.3-3.2 3.3z"/>
    <path class="st1" d="M21.3 9.4c.6 0 1.1.5 1.1 1.2s-.5 1.2-1.1 1.2-1.1-.5-1.1-1.2.5-1.2 1.1-1.2z"/>
</symbol><symbol id="icon-mail" viewBox="0 0 21 15">
    <path fill-rule="evenodd" clip-rule="evenodd" d="M10.385 8.96L20.121.634H.649l9.736 8.324zm-2.63-.922l2.63 2.13 2.588-2.13 7.148 6.044H.649l7.106-6.044zM0 13.442V1.275l7.14 6.083L0 13.442zm20.77 0V1.275l-7.14 6.083 7.14 6.084z"/>
</symbol><symbol id="icon-messenger" viewBox="0 0 1000 1000">
    <style>
        .st0{fill:url(#tweaked_values_1_)}.st1{fill:#fff}
    </style>
    <title/>
    <linearGradient gradientTransform="rotate(-90 1903 1903)" gradientUnits="userSpaceOnUse" id="tweaked_values_1_" x1="2806" x2="3806" y1="500" y2="500">
        <stop offset=".114" stop-color="#006dff"/>
        <stop offset=".949" stop-color="#00c6ff"/>
    </linearGradient>
    <path class="st0" d="M1000 500c0 276.1-223.9 500-500 500S0 776.1 0 500 223.9 0 500 0s500 223.9 500 500z" id="tweaked_values"/>
    <path class="st1" d="M499.5 162.1c-185 0-335 140.3-335 313.3 0 98.4 48.5 186.2 124.5 243.7V839l114.3-63.4c30.5 8.5 62.8 13.1 96.2 13.1 185 0 335-140.3 335-313.3s-150-313.3-335-313.3zm35.3 420.1l-86.6-90-166.9 92.3 182.9-194.1 86.6 90L717.7 388 534.8 582.2z" id="Bubble_Shape"/>
</symbol><symbol id="icon-phone" viewBox="0 0 139 139">
    <path d="M67.317 81.952c-9.284-7.634-15.483-17.054-18.742-22.414l-2.431-4.583c.85-.912 7.332-7.853 10.141-11.619 3.53-4.729-1.588-9-1.588-9s-14.401-14.403-17.683-17.26c-3.282-2.861-7.06-1.272-7.06-1.272-6.898 4.457-14.049 8.332-14.478 26.968-.016 17.448 13.229 35.444 27.552 49.376 14.346 15.734 34.043 31.504 53.086 31.486 18.634-.425 22.508-7.575 26.965-14.473 0 0 1.59-3.775-1.268-7.06-2.86-3.284-17.265-17.688-17.265-17.688s-4.268-5.119-8.998-1.586c-3.525 2.635-9.855 8.496-11.38 9.917.003.005-10.586-5.64-16.851-10.792z"/>
</symbol><symbol id="icon-telegram" viewBox="0 0 256 256">
    <path d="M128 0C57.307 0 0 57.307 0 128s57.307 128 128 128 128-57.307 128-128S198.693 0 128 0z"/>
    <path d="M190.283 73.63L167.42 188.899s-3.197 7.994-11.99 4.157l-52.758-40.448-19.184-9.272-32.294-10.872s-4.956-1.758-5.436-5.595c-.48-3.837 5.596-5.915 5.596-5.915l128.376-50.36s10.552-4.636 10.552 3.038"/>
    <path d="M98.618 187.603s-1.54-.144-3.46-6.22c-1.917-6.075-11.67-38.049-11.67-38.049l77.538-49.24s4.477-2.718 4.317 0c0 0 .799.48-1.6 2.718-2.397 2.239-60.91 54.836-60.91 54.836"/>
    <path d="M122.901 168.115l-20.867 19.026s-1.632 1.238-3.416.462l3.996-35.34"/>
</symbol><symbol id="icon-user" viewBox="0 0 18 17">
    <path d="M9.269 8c2.305 0 4.174-1.79 4.174-4S11.574 0 9.27 0C6.963 0 5.094 1.79 5.094 4s1.87 4 4.175 4z"/>
    <path d="M17.618 15v1a.98.98 0 0 1-.306.707 1.068 1.068 0 0 1-.738.293H1.963c-.277 0-.542-.105-.738-.293A.98.98 0 0 1 .919 16v-1c0-1.591.66-3.117 1.834-4.243A6.403 6.403 0 0 1 7.181 9h4.175c1.66 0 3.254.632 4.428 1.757A5.876 5.876 0 0 1 17.618 15z"/>
</symbol><symbol id="icon-viber" viewBox="0 0 62 62">
    <path d="M31 62c17.12 0 31-13.88 31-31C62 13.88 48.12 0 31 0 13.88 0 0 13.88 0 31c0 17.12 13.88 31 31 31z"/>
    <path d="M44.6 38.1c-1-.8-2.1-1.5-3.1-2.3-2.1-1.5-4-1.6-5.6.8-.9 1.3-2.1 1.4-3.4.8-3.5-1.6-6.3-4.1-7.9-7.7-.7-1.6-.7-3 1-4.2.9-.6 1.8-1.3 1.7-2.6-.1-1.7-4.2-7.4-5.8-8-.7-.3-1.3-.2-2 0-3.8 1.3-5.4 4.4-3.9 8.1C20 34.2 28 42 38.9 46.7c.6.3 1.3.4 1.7.5 2.5 0 5.4-2.4 6.3-4.8.8-2.3-.9-3.2-2.3-4.3z"/>
    <path d="M32.3 15.7c8 1.2 11.7 5 12.7 13.1.1.7-.2 1.9.9 1.9s.8-1.1.9-1.8c.1-7.6-6.5-14.6-14.2-14.9-.6.1-1.8-.4-1.9.9-.1.8.9.7 1.6.8z"/>
    <path d="M33.9 17.9c-.8-.1-1.8-.5-2 .6-.2 1.1.9 1 1.7 1.2 4.9 1.1 6.7 2.9 7.5 7.8.1.7-.1 1.8 1.1 1.6.9-.1.6-1.1.7-1.6 0-4.7-4.1-9-9-9.6z"/>
    <path d="M34.3 21.8c-.5 0-1 .1-1.2.6-.3.8.3 1 .9 1.1 2 .3 3.1 1.5 3.3 3.5.1.5.4 1 .9.9.7-.1.8-.7.8-1.4.1-2.2-2.5-4.8-4.7-4.7z"/>
</symbol><symbol id="icon-waves" viewBox="0 0 43 26">
    <path d="M40.065 16.296c-.646 0-1.443-.184-2.395-.718-.62-.347-1.315-.97-2.119-1.691-1.358-1.218-3.222-2.882-4.453-2.688-.448.072-.84.408-1.198 1.03a.819.819 0 0 1-1.419-.819c.611-1.061 1.405-1.677 2.358-1.829 2.005-.323 4.026 1.49 5.806 3.086.701.629 1.364 1.224 1.825 1.483.971.544 1.816.66 2.316.316a.827.827 0 0 0 .26-.282.82.82 0 0 1-.189-1.612c.864-.22 1.443.178 1.698.623.386.675.185 1.65-.477 2.317-.24.242-.904.784-2.014.784z"/>
    <path d="M30.704 13.508a.819.819 0 0 1 .591-.995c.863-.22 1.444.178 1.699.623.385.675.184 1.65-.477 2.317-.24.241-.904.784-2.013.784-.646 0-1.444-.184-2.396-.719-.619-.347-1.313-.97-2.118-1.691-1.357-1.218-3.214-2.882-4.454-2.688-.448.072-.84.409-1.198 1.03a.819.819 0 0 1-1.419-.818c.612-1.061 1.405-1.677 2.359-1.83 2.006-.318 4.025 1.49 5.806 3.087.701.629 1.364 1.223 1.826 1.482.97.545 1.815.66 2.314.316a.843.843 0 0 0 .261-.28.82.82 0 0 1-.781-.618z"/>
    <path d="M20.843 16.364c-.646 0-1.444-.183-2.396-.718-.619-.347-1.314-.97-2.118-1.691-1.357-1.218-3.215-2.885-4.453-2.688-.449.072-.84.409-1.198 1.03a.82.82 0 0 1-1.42-.818c.612-1.062 1.406-1.677 2.36-1.83 2.005-.319 4.024 1.49 5.805 3.086.701.63 1.364 1.224 1.825 1.482.971.545 1.816.66 2.315.316a.834.834 0 0 0 .261-.28.82.82 0 0 1-.19-1.612c.864-.22 1.444.177 1.698.623.386.674.185 1.648-.477 2.316-.24.242-.903.784-2.012.784z"/>
    <path d="M2.056 9.59c2.006-.322 4.025 1.489 5.805 3.085.702.63 1.365 1.224 1.826 1.483.971.544 1.814.66 2.315.316a.835.835 0 0 0 .26-.28.82.82 0 0 1-.189-1.613c.862-.221 1.444.178 1.698.624.385.673.185 1.648-.477 2.315-.24.242-.904.785-2.013.785-.645 0-1.442-.185-2.395-.719-.62-.347-1.314-.97-2.118-1.691-1.358-1.218-3.215-2.888-4.454-2.688-.448.072-.84.409-1.198 1.03a.82.82 0 0 1-1.42-.818c.612-1.062 1.406-1.677 2.36-1.83z"/>
    <path d="M31.098 20.559c-.448.071-.84.407-1.198 1.029a.82.82 0 0 1-1.419-.818c.611-1.061 1.405-1.676 2.358-1.83 2.005-.319 4.026 1.49 5.806 3.087.701.629 1.364 1.223 1.825 1.482.971.545 1.816.66 2.316.316a.827.827 0 0 0 .26-.281.82.82 0 0 1-.189-1.612c.864-.22 1.443.178 1.698.623.386.675.185 1.649-.477 2.316-.24.242-.904.785-2.014.785-.645 0-1.442-.184-2.394-.718-.62-.348-1.315-.97-2.12-1.692-1.357-1.218-3.221-2.881-4.452-2.687z"/>
    <path d="M21.536 20.499c-.448.072-.84.408-1.198 1.03a.819.819 0 1 1-1.419-.818c.612-1.061 1.405-1.677 2.359-1.83 2.006-.318 4.025 1.49 5.806 3.086.701.63 1.364 1.223 1.826 1.482.97.545 1.815.66 2.314.317a.843.843 0 0 0 .261-.28.82.82 0 0 1-.19-1.614c.863-.22 1.444.179 1.699.624.385.674.184 1.649-.477 2.316-.24.242-.904.784-2.013.784-.646 0-1.444-.184-2.396-.718-.619-.348-1.313-.97-2.118-1.692-1.357-1.217-3.214-2.884-4.454-2.687z"/>
    <path d="M11.727 20.654c-.448.072-.84.409-1.198 1.03a.82.82 0 0 1-1.42-.818c.613-1.06 1.406-1.677 2.36-1.829 2.006-.32 4.025 1.49 5.806 3.086.7.629 1.363 1.223 1.825 1.482.97.544 1.815.66 2.315.316a.836.836 0 0 0 .26-.28.82.82 0 0 1-.19-1.613c.865-.22 1.444.177 1.699.623.385.674.185 1.648-.477 2.316-.24.242-.904.785-2.013.785-.646 0-1.443-.184-2.396-.719-.619-.347-1.313-.97-2.118-1.69-1.357-1.219-3.214-2.884-4.453-2.689z"/>
    <path d="M2.056 18.95c2.006-.324 4.025 1.488 5.805 3.084.702.63 1.365 1.224 1.826 1.483.971.544 1.814.66 2.315.317a.833.833 0 0 0 .26-.281.82.82 0 0 1-.189-1.612c.862-.222 1.444.177 1.698.623.385.674.185 1.648-.477 2.315-.24.242-.904.785-2.013.785-.645 0-1.442-.184-2.395-.718-.62-.347-1.314-.97-2.118-1.692-1.358-1.217-3.215-2.886-4.454-2.687-.448.071-.84.408-1.198 1.03a.82.82 0 0 1-1.42-.819c.612-1.061 1.406-1.676 2.36-1.828z"/>
    <path d="M40.065 6.936c-.646 0-1.443-.184-2.395-.718-.62-.348-1.315-.97-2.119-1.692-1.358-1.218-3.222-2.883-4.453-2.687-.448.071-.84.408-1.198 1.029a.819.819 0 1 1-1.419-.818C29.092.989 29.886.374 30.839.22c2.005-.323 4.026 1.489 5.806 3.086.701.629 1.364 1.223 1.825 1.482.971.545 1.816.66 2.316.316a.83.83 0 0 0 .26-.28.82.82 0 0 1-.189-1.613c.864-.22 1.443.178 1.698.623.386.675.185 1.649-.477 2.316-.24.242-.904.785-2.014.785z"/>
    <path d="M31.224 5.046a.843.843 0 0 0 .261-.28.82.82 0 0 1-.19-1.613c.863-.22 1.444.178 1.699.623.385.675.184 1.649-.477 2.316-.24.242-.904.785-2.013.785-.646 0-1.444-.185-2.396-.719-.619-.347-1.313-.97-2.118-1.691-1.357-1.218-3.214-2.884-4.454-2.688-.448.072-.84.409-1.198 1.03a.819.819 0 1 1-1.419-.818C19.531.93 20.324.314 21.278.16c2.006-.317 4.025 1.49 5.806 3.086.701.63 1.364 1.224 1.826 1.483.97.544 1.815.66 2.314.316z"/>
    <path d="M21.563 5.174a.84.84 0 0 0 .261-.28.82.82 0 0 1-.19-1.613c.864-.22 1.444.177 1.698.623.386.674.185 1.648-.477 2.316-.24.242-.903.785-2.012.785-.646 0-1.444-.184-2.396-.719-.619-.347-1.313-.97-2.118-1.69-1.357-1.219-3.215-2.883-4.453-2.689-.449.072-.84.409-1.198 1.03a.82.82 0 0 1-1.42-.818C9.87 1.058 10.664.443 11.618.29c2.005-.318 4.025 1.49 5.805 3.086.701.629 1.364 1.223 1.825 1.482.971.544 1.816.66 2.315.316z"/>
    <path d="M12.002 5.114a.832.832 0 0 0 .26-.28.819.819 0 0 1-.189-1.613c.862-.221 1.444.178 1.698.623.385.674.185 1.648-.477 2.316-.24.242-.904.785-2.013.784-.645 0-1.442-.184-2.395-.718-.62-.347-1.314-.97-2.118-1.692C5.41 3.317 3.553 1.65 2.314 1.847c-.448.072-.84.409-1.198 1.03a.82.82 0 0 1-1.42-.818C.309.997 1.103.382 2.057.229 4.062-.091 6.08 1.72 7.86 3.316c.701.629 1.365 1.224 1.826 1.483.971.544 1.814.66 2.315.316z"/>
</symbol></svg>