<svg width="24" height="24" viewBox="0 0 24 24" fill="none" xmlns="http://www.w3.org/2000/svg">
<path d="M24 12C24 18.6273 18.6273 24 12 24C5.37267 24 0 18.6273 0 12C0 5.37267 5.37267 0 12 0C18.6273 0 24 5.37267 24 12Z" fill="#FFCC4D"/>
<path d="M4.66671 15.3334C6.50766 15.3334 8.00004 13.841 8.00004 12C8.00004 10.1591 6.50766 8.66669 4.66671 8.66669C2.82576 8.66669 1.33337 10.1591 1.33337 12C1.33337 13.841 2.82576 15.3334 4.66671 15.3334Z" fill="#FF7892"/>
<path d="M19.3333 15.3334C21.1743 15.3334 22.6667 13.841 22.6667 12C22.6667 10.1591 21.1743 8.66669 19.3333 8.66669C17.4924 8.66669 16 10.1591 16 12C16 13.841 17.4924 15.3334 19.3333 15.3334Z" fill="#FF7892"/>
<path d="M18.2234 14.4193C18.1048 14.312 17.9274 14.3053 17.8001 14.4C17.7741 14.4193 15.1854 16.3333 12.0001 16.3333C8.82277 16.3333 6.22543 14.4193 6.2001 14.4C6.07277 14.3053 5.89543 14.3133 5.77677 14.4193C5.65877 14.526 5.6321 14.702 5.7141 14.838C5.8001 14.9813 7.85877 18.3333 12.0001 18.3333C16.1414 18.3333 18.2008 14.9813 18.2861 14.838C18.3681 14.7013 18.3421 14.526 18.2234 14.4193ZM5.33277 9.99998C5.23277 9.99998 5.13077 9.97731 5.03543 9.92931C4.7061 9.76465 4.57277 9.36398 4.73743 9.03465C4.7721 8.96531 5.6161 7.33331 8.0001 7.33331C10.3848 7.33331 11.2281 8.96598 11.2628 9.03531C11.4274 9.36465 11.2941 9.76531 10.9648 9.92998C10.6368 10.0933 10.2414 9.96265 10.0741 9.63931C10.0454 9.58598 9.52077 8.66665 8.0001 8.66665C6.45543 8.66665 5.9341 9.62198 5.92943 9.63131C5.81277 9.86531 5.57743 9.99998 5.33277 9.99998ZM18.6674 9.99998C18.4228 9.99998 18.1874 9.86531 18.0701 9.63131C18.0534 9.60065 17.5328 8.66665 16.0001 8.66665C14.4674 8.66665 13.9468 9.60065 13.9254 9.63998C13.7521 9.96065 13.3528 10.0866 13.0288 9.91998C12.7054 9.75198 12.5741 9.36065 12.7368 9.03465C12.7714 8.96598 13.6154 7.33331 16.0001 7.33331C18.3848 7.33331 19.2288 8.96598 19.2634 9.03531C19.4281 9.36465 19.2948 9.76531 18.9654 9.92998C18.8694 9.97731 18.7674 9.99998 18.6674 9.99998Z" fill="#664500"/>
</svg>
