<svg width="24" height="26" viewBox="0 0 24 26" fill="none" xmlns="http://www.w3.org/2000/svg">
<path d="M11.6392 25.9228C15.6161 25.9228 18.84 22.6989 18.84 18.722C18.84 14.7451 15.6161 11.5212 11.6392 11.5212C7.66237 11.5212 4.43848 14.7451 4.43848 18.722C4.43848 22.6989 7.66237 25.9228 11.6392 25.9228Z" fill="#E1E8ED"/>
<path d="M7.31879 7.9208C7.31879 5.53447 9.25291 3.60034 11.6392 3.60034C14.0249 3.60034 15.9597 5.53447 15.9597 7.9208C15.9597 10.3071 14.0249 12.2413 11.6392 12.2413C9.25291 12.2413 7.31879 10.3071 7.31879 7.9208Z" fill="#E1E8ED"/>
<path d="M15.2396 4.32046C15.2396 5.11542 14.5944 5.76061 13.7995 5.76061H9.47903C8.68407 5.76061 8.03888 5.11542 8.03888 4.32046V1.44015C8.03888 0.645188 8.68407 0 9.47903 0H13.7995C14.5944 0 15.2396 0.645188 15.2396 1.44015V4.32046Z" fill="#414042"/>
<path d="M16.6798 5.04051C16.6798 5.43799 16.3579 5.76059 15.9597 5.76059H7.31883C6.92135 5.76059 6.59875 5.43799 6.59875 5.04051C6.59875 4.64303 6.92135 4.32043 7.31883 4.32043H15.9597C16.3579 4.32043 16.6798 4.64303 16.6798 5.04051Z" fill="#231F20"/>
<path d="M14.8796 10.8011H8.3989C7.80196 10.8011 7.31879 11.2843 7.31879 11.8813C7.31879 12.3508 7.6205 12.7468 8.03886 12.8951V18.0019C8.03886 18.4001 8.36146 18.722 8.75894 18.722H9.47901C9.8765 18.722 10.1991 18.4001 10.1991 18.0019V12.9614H14.8796C15.4758 12.9614 15.9597 12.4782 15.9597 11.8813C15.9597 11.2843 15.4758 10.8011 14.8796 10.8011Z" fill="#DD2E44"/>
<path d="M12.3593 17.2818C12.3593 17.68 12.0375 18.0019 11.6393 18.0019C11.2418 18.0019 10.9192 17.68 10.9192 17.2818C10.9192 16.8836 11.2418 16.5618 11.6393 16.5618C12.0375 16.5618 12.3593 16.8836 12.3593 17.2818ZM12.3593 20.8822C12.3593 21.2804 12.0375 21.6023 11.6393 21.6023C11.2418 21.6023 10.9192 21.2804 10.9192 20.8822C10.9192 20.484 11.2418 20.1621 11.6393 20.1621C12.0375 20.1621 12.3593 20.484 12.3593 20.8822Z" fill="#414042"/>
<path d="M12.3593 8.64085C12.3593 9.03905 12.0375 9.36093 11.6393 9.36093C11.2418 9.36093 10.9192 9.03905 10.9192 8.64085C10.9192 8.24265 11.2418 7.92078 11.6393 7.92078C12.0375 7.92078 12.3593 8.24265 12.3593 8.64085Z" fill="#F4900C"/>
<path d="M10.1991 7.20079C10.1991 7.59899 9.87653 7.92086 9.47905 7.92086C9.08157 7.92086 8.75897 7.59899 8.75897 7.20079C8.75897 6.80259 9.08157 6.48071 9.47905 6.48071C9.87653 6.48071 10.1991 6.80259 10.1991 7.20079ZM14.5196 7.20079C14.5196 7.59899 14.1977 7.92086 13.7995 7.92086C13.4013 7.92086 13.0794 7.59899 13.0794 7.20079C13.0794 6.80259 13.4013 6.48071 13.7995 6.48071C14.1977 6.48071 14.5196 6.80259 14.5196 7.20079Z" fill="#414042"/>
<path d="M6.16236 14.4599L3.67665 13.3949L3.28277 11.3311C3.20788 10.9408 2.83344 10.6852 2.44028 10.7587C2.05 10.8336 1.79366 11.2102 1.86782 11.6012L2.07953 12.7101L1.12182 12.2996C0.756026 12.1419 0.332622 12.3126 0.176365 12.6777C0.0193886 13.0435 0.189326 13.4669 0.554405 13.6231L1.08942 13.8521L0.329021 14.6125C0.0474715 14.8941 0.0474715 15.3492 0.329021 15.6307C0.469436 15.7711 0.653775 15.8417 0.838115 15.8417C1.02245 15.8417 1.20679 15.7711 1.34721 15.6307L2.51445 14.4635L5.59494 15.7834C5.68711 15.8237 5.7836 15.8417 5.87865 15.8417C6.15803 15.8417 6.42374 15.6782 6.5404 15.4053C6.69737 15.0395 6.52743 14.6168 6.16236 14.4599ZM22.6679 12.278L21.613 11.9266L22.2287 11.311C22.5102 11.0294 22.5102 10.5743 22.2287 10.2928C21.9471 10.0112 21.4921 10.0112 21.2105 10.2928L20.6697 10.8336L20.2578 9.18674C20.1614 8.8015 19.7696 8.56388 19.3851 8.66325C18.9991 8.75974 18.7644 9.15074 18.8616 9.5367L19.4823 12.021L16.89 14.6132C16.6085 14.8948 16.6085 15.3499 16.89 15.6314C17.0312 15.7711 17.2155 15.8417 17.3999 15.8417C17.5842 15.8417 17.7685 15.7711 17.909 15.6307L20.4746 13.0651L22.2121 13.6447C22.2885 13.6699 22.3655 13.6815 22.4404 13.6815C22.7421 13.6815 23.0229 13.4906 23.123 13.1889C23.249 12.8116 23.0453 12.404 22.6679 12.278Z" fill="#FFAC33"/>
<path d="M5.93624 1.52154C5.82607 1.35664 5.60285 1.31128 5.43723 1.42217L4.79852 1.84773V1.08013C4.79852 0.88139 4.63722 0.720093 4.43848 0.720093C4.23974 0.720093 4.07845 0.88139 4.07845 1.08013V1.84773L3.43974 1.42217C3.2734 1.31128 3.0509 1.35664 2.94073 1.52154C2.83055 1.68643 2.8752 1.91038 3.04082 2.02055L3.7897 2.52028L3.04082 3.01929C2.8752 3.13019 2.83055 3.35341 2.94073 3.51903C3.00985 3.62344 3.12434 3.6796 3.241 3.6796C3.3094 3.6796 3.37853 3.66016 3.44046 3.61912L4.07845 3.19283V3.96043C4.07845 4.15917 4.23974 4.32047 4.43848 4.32047C4.63722 4.32047 4.79852 4.15917 4.79852 3.96043V3.19283L5.43723 3.6184C5.49844 3.65944 5.56828 3.67888 5.63669 3.67888C5.75334 3.67888 5.86711 3.62272 5.93696 3.51831C6.04713 3.35341 6.00249 3.12947 5.83687 3.01929L5.08727 2.52028L5.83615 2.02127C6.00177 1.91038 6.04641 1.68715 5.93624 1.52154ZM3.05594 6.56207C2.94577 6.39717 2.72254 6.35181 2.55693 6.4627L1.91822 6.88826V6.12066C1.91822 5.92192 1.75692 5.76062 1.55818 5.76062C1.35944 5.76062 1.19814 5.92192 1.19814 6.12066V6.88826L0.559435 6.4627C0.393097 6.35181 0.170594 6.39717 0.060422 6.56207C-0.0497496 6.72697 -0.00510487 6.95091 0.160513 7.06108L0.909391 7.56009L0.160513 8.05911C-0.00510487 8.16928 -0.0497496 8.39322 0.060422 8.55812C0.129549 8.66253 0.244041 8.7187 0.360694 8.7187C0.429101 8.7187 0.498228 8.69925 0.560155 8.65821L1.19814 8.23336V9.00097C1.19814 9.19971 1.35944 9.361 1.55818 9.361C1.75692 9.361 1.91822 9.19971 1.91822 9.00097V8.23336L2.55693 8.65893C2.61813 8.69997 2.68798 8.71942 2.75639 8.71942C2.87304 8.71942 2.98681 8.66325 3.05666 8.55884C3.16683 8.39394 3.12218 8.17 2.95657 8.05983L2.20697 7.56081L2.95585 7.0618C3.12146 6.95091 3.16611 6.72769 3.05594 6.56207ZM3.05594 18.8034C2.94577 18.6385 2.72254 18.5931 2.55693 18.7033L1.91822 19.1296V18.362C1.91822 18.1632 1.75692 18.0019 1.55818 18.0019C1.35944 18.0019 1.19814 18.1632 1.19814 18.362V19.1296L0.559435 18.704C0.393097 18.5938 0.169874 18.6385 0.060422 18.8041C-0.0497496 18.969 -0.00510487 19.1929 0.160513 19.3031L0.909391 19.8021L0.160513 20.3011C-0.00510487 20.4113 -0.0497496 20.6352 0.060422 20.8001C0.129549 20.9045 0.244041 20.9607 0.360694 20.9607C0.429101 20.9607 0.498228 20.9413 0.560155 20.9002L1.19814 20.4747V21.2423C1.19814 21.441 1.35944 21.6023 1.55818 21.6023C1.75692 21.6023 1.91822 21.441 1.91822 21.2423V20.4747L2.55693 20.9002C2.61813 20.9413 2.68798 20.9607 2.75639 20.9607C2.87304 20.9607 2.98681 20.9045 3.05666 20.8001C3.16683 20.6352 3.12218 20.4113 2.95657 20.3011L2.20697 19.8021L2.95585 19.3031C3.12146 19.1922 3.16611 18.969 3.05594 18.8034ZM23.0892 6.84074L23.838 6.34172C24.0037 6.23155 24.0483 6.00761 23.9381 5.84271C23.828 5.67782 23.6047 5.63245 23.4391 5.74262L22.8004 6.16819V5.40059C22.8004 5.20184 22.6391 5.04055 22.4404 5.04055C22.2416 5.04055 22.0803 5.20184 22.0803 5.40059V6.16819L21.4416 5.74262C21.2753 5.63245 21.0521 5.67709 20.9426 5.84271C20.8324 6.00761 20.8771 6.23155 21.0427 6.34172L21.7916 6.84074L21.0427 7.33975C20.8771 7.44992 20.8324 7.67386 20.9426 7.83876C21.0117 7.94317 21.1262 7.99934 21.2429 7.99934C21.3113 7.99934 21.3804 7.9799 21.4424 7.93885L22.0811 7.51329V8.28089C22.0811 8.47963 22.2424 8.64093 22.4411 8.64093C22.6398 8.64093 22.8011 8.47963 22.8011 8.28089V7.51329L23.4398 7.93885C23.5011 7.9799 23.5709 7.99934 23.6393 7.99934C23.756 7.99934 23.8697 7.94317 23.9396 7.83876C24.0497 7.67386 24.0051 7.44992 23.8395 7.33975L23.0892 6.84074ZM23.2181 16.6431C23.1079 16.4782 22.8847 16.4329 22.719 16.543L22.0803 16.9693V16.2017C22.0803 16.003 21.919 15.8417 21.7203 15.8417C21.5216 15.8417 21.3603 16.003 21.3603 16.2017V16.9693L20.7216 16.5438C20.5552 16.4336 20.332 16.4782 20.2225 16.6439C20.1124 16.8087 20.157 17.0327 20.3226 17.1429L21.0715 17.6419L20.3226 18.1409C20.157 18.2511 20.1124 18.475 20.2225 18.6399C20.2917 18.7443 20.4062 18.8005 20.5228 18.8005C20.5912 18.8005 20.6604 18.781 20.7223 18.74L21.361 18.3144V19.082C21.361 19.2808 21.5223 19.4421 21.721 19.4421C21.9198 19.4421 22.0811 19.2808 22.0811 19.082V18.3144L22.7198 18.74C22.781 18.781 22.8508 18.8005 22.9192 18.8005C23.0359 18.8005 23.1497 18.7443 23.2195 18.6399C23.3297 18.475 23.285 18.2511 23.1194 18.1409L22.3705 17.6419L23.1194 17.1429C23.2836 17.032 23.3282 16.8087 23.2181 16.6431ZM20.2377 3.01929L19.4888 2.52028L20.2377 2.02127C20.4033 1.9111 20.4479 1.68715 20.3378 1.52226C20.2276 1.35736 20.0044 1.312 19.8387 1.42217L19.2 1.84773V1.08013C19.2 0.88139 19.0387 0.720093 18.84 0.720093C18.6413 0.720093 18.48 0.88139 18.48 1.08013V1.84773L17.8413 1.42217C17.6749 1.312 17.4517 1.35664 17.3422 1.52226C17.2321 1.68715 17.2767 1.9111 17.4423 2.02127L18.1912 2.52028L17.4423 3.01929C17.2767 3.12947 17.2321 3.35341 17.3422 3.51831C17.4114 3.62272 17.5259 3.67888 17.6425 3.67888C17.7109 3.67888 17.78 3.65944 17.842 3.6184L18.48 3.19283V3.96043C18.48 4.15917 18.6413 4.32047 18.84 4.32047C19.0387 4.32047 19.2 4.15917 19.2 3.96043V3.19283L19.8387 3.6184C19.9 3.65944 19.9698 3.67888 20.0382 3.67888C20.1549 3.67888 20.2686 3.62272 20.3385 3.51831C20.4479 3.35341 20.4033 3.13019 20.2377 3.01929Z" fill="#88C9F9"/>
</svg>
